<?xml version="1.0" encoding="UTF-8" standalone="no"?>
<!DOCTYPE svg PUBLIC "-//W3C//DTD SVG 1.1//EN"
 "http://www.w3.org/Graphics/SVG/1.1/DTD/svg11.dtd">
<!-- Generated by graphviz version 13.1.1 (20250719.2154)
 -->
<!-- Title: dependency&#45;cruiser output Pages: 1 -->
<svg width="1303pt" height="3012pt"
 viewBox="0.00 0.00 1303.00 3012.00" xmlns="http://www.w3.org/2000/svg" xmlns:xlink="http://www.w3.org/1999/xlink">
<g id="graph0" class="graph" transform="scale(1 1) rotate(0) translate(4 3008)">
<title>dependency&#45;cruiser output</title>
<polygon fill="white" stroke="none" points="-4,4 -4,-3008 1298.5,-3008 1298.5,4 -4,4"/>
<g id="clust1" class="cluster">
<title>cluster_controllers</title>
<path fill="#ffffff" stroke="black" stroke-width="2" d="M493.5,-775C493.5,-775 585.5,-775 585.5,-775 591.5,-775 597.5,-781 597.5,-787 597.5,-787 597.5,-907 597.5,-907 597.5,-913 591.5,-919 585.5,-919 585.5,-919 493.5,-919 493.5,-919 487.5,-919 481.5,-913 481.5,-907 481.5,-907 481.5,-787 481.5,-787 481.5,-781 487.5,-775 493.5,-775"/>
<text xml:space="preserve" text-anchor="middle" x="539.5" y="-906.45" font-family="Helvetica,sans-Serif" font-weight="bold" font-size="9.00">controllers</text>
</g>
<g id="clust2" class="cluster">
<title>cluster_node_modules</title>
<path fill="#ffffff" stroke="black" stroke-width="2" d="M992,-1033C992,-1033 1070.5,-1033 1070.5,-1033 1076.5,-1033 1082.5,-1039 1082.5,-1045 1082.5,-1045 1082.5,-1984 1082.5,-1984 1082.5,-1990 1076.5,-1996 1070.5,-1996 1070.5,-1996 992,-1996 992,-1996 986,-1996 980,-1990 980,-1984 980,-1984 980,-1045 980,-1045 980,-1039 986,-1033 992,-1033"/>
<text xml:space="preserve" text-anchor="middle" x="1031.25" y="-1983.45" font-family="Helvetica,sans-Serif" font-weight="bold" font-size="9.00">node_modules</text>
</g>
<g id="clust3" class="cluster">
<title>cluster_public</title>
<path fill="#ffffff" stroke="black" stroke-width="2" d="M462.5,-1963C462.5,-1963 833.75,-1963 833.75,-1963 839.75,-1963 845.75,-1969 845.75,-1975 845.75,-1975 845.75,-2984 845.75,-2984 845.75,-2990 839.75,-2996 833.75,-2996 833.75,-2996 462.5,-2996 462.5,-2996 456.5,-2996 450.5,-2990 450.5,-2984 450.5,-2984 450.5,-1975 450.5,-1975 450.5,-1969 456.5,-1963 462.5,-1963"/>
<text xml:space="preserve" text-anchor="middle" x="648.12" y="-2983.45" font-family="Helvetica,sans-Serif" font-weight="bold" font-size="9.00">public</text>
</g>
<g id="clust4" class="cluster">
<title>cluster_public/js</title>
<path fill="#ffffff" stroke="black" stroke-width="2" d="M470.5,-1971C470.5,-1971 825.75,-1971 825.75,-1971 831.75,-1971 837.75,-1977 837.75,-1983 837.75,-1983 837.75,-2957 837.75,-2957 837.75,-2963 831.75,-2969 825.75,-2969 825.75,-2969 470.5,-2969 470.5,-2969 464.5,-2969 458.5,-2963 458.5,-2957 458.5,-2957 458.5,-1983 458.5,-1983 458.5,-1977 464.5,-1971 470.5,-1971"/>
<text xml:space="preserve" text-anchor="middle" x="648.12" y="-2956.45" font-family="Helvetica,sans-Serif" font-weight="bold" font-size="9.00">js</text>
</g>
<g id="clust5" class="cluster">
<title>cluster_public/js/login</title>
<path fill="#ffffff" stroke="black" stroke-width="2" d="M516.5,-1979C516.5,-1979 562.5,-1979 562.5,-1979 568.5,-1979 574.5,-1985 574.5,-1991 574.5,-1991 574.5,-2020 574.5,-2020 574.5,-2026 568.5,-2032 562.5,-2032 562.5,-2032 516.5,-2032 516.5,-2032 510.5,-2032 504.5,-2026 504.5,-2020 504.5,-2020 504.5,-1991 504.5,-1991 504.5,-1985 510.5,-1979 516.5,-1979"/>
<text xml:space="preserve" text-anchor="middle" x="539.5" y="-2019.45" font-family="Helvetica,sans-Serif" font-weight="bold" font-size="9.00">login</text>
</g>
<g id="clust6" class="cluster">
<title>cluster_public/js/scripts</title>
<path fill="#ffffff" stroke="black" stroke-width="2" d="M498.38,-2070C498.38,-2070 817.75,-2070 817.75,-2070 823.75,-2070 829.75,-2076 829.75,-2082 829.75,-2082 829.75,-2839 829.75,-2839 829.75,-2845 823.75,-2851 817.75,-2851 817.75,-2851 498.38,-2851 498.38,-2851 492.38,-2851 486.38,-2845 486.38,-2839 486.38,-2839 486.38,-2082 486.38,-2082 486.38,-2076 492.38,-2070 498.38,-2070"/>
<text xml:space="preserve" text-anchor="middle" x="658.06" y="-2838.45" font-family="Helvetica,sans-Serif" font-weight="bold" font-size="9.00">scripts</text>
</g>
<g id="clust7" class="cluster">
<title>cluster_public/js/usuarios</title>
<path fill="#ffffff" stroke="black" stroke-width="2" d="M478.5,-2889C478.5,-2889 600.5,-2889 600.5,-2889 606.5,-2889 612.5,-2895 612.5,-2901 612.5,-2901 612.5,-2930 612.5,-2930 612.5,-2936 606.5,-2942 600.5,-2942 600.5,-2942 478.5,-2942 478.5,-2942 472.5,-2942 466.5,-2936 466.5,-2930 466.5,-2930 466.5,-2901 466.5,-2901 466.5,-2895 472.5,-2889 478.5,-2889"/>
<text xml:space="preserve" text-anchor="middle" x="539.5" y="-2929.45" font-family="Helvetica,sans-Serif" font-weight="bold" font-size="9.00">usuarios</text>
</g>
<g id="clust8" class="cluster">
<title>cluster_routes</title>
<path fill="#ffffff" stroke="black" stroke-width="2" d="M256.25,-1057C256.25,-1057 579.5,-1057 579.5,-1057 585.5,-1057 591.5,-1063 591.5,-1069 591.5,-1069 591.5,-1098 591.5,-1098 591.5,-1104 585.5,-1110 579.5,-1110 579.5,-1110 256.25,-1110 256.25,-1110 250.25,-1110 244.25,-1104 244.25,-1098 244.25,-1098 244.25,-1069 244.25,-1069 244.25,-1063 250.25,-1057 256.25,-1057"/>
<text xml:space="preserve" text-anchor="middle" x="417.88" y="-1097.45" font-family="Helvetica,sans-Serif" font-weight="bold" font-size="9.00">routes</text>
</g>
<g id="clust9" class="cluster">
<title>cluster_utils</title>
<path fill="#ffffff" stroke="black" stroke-width="2" d="M744.5,-531C744.5,-531 1081.5,-531 1081.5,-531 1087.5,-531 1093.5,-537 1093.5,-543 1093.5,-543 1093.5,-762 1093.5,-762 1093.5,-768 1087.5,-774 1081.5,-774 1081.5,-774 744.5,-774 744.5,-774 738.5,-774 732.5,-768 732.5,-762 732.5,-762 732.5,-543 732.5,-543 732.5,-537 738.5,-531 744.5,-531"/>
<text xml:space="preserve" text-anchor="middle" x="913" y="-761.45" font-family="Helvetica,sans-Serif" font-weight="bold" font-size="9.00">utils</text>
</g>
<g id="clust10" class="cluster">
<title>cluster_utils/middlewares</title>
<path fill="#ffffff" stroke="black" stroke-width="2" d="M752.5,-539C752.5,-539 837,-539 837,-539 843,-539 849,-545 849,-551 849,-551 849,-671 849,-671 849,-677 843,-683 837,-683 837,-683 752.5,-683 752.5,-683 746.5,-683 740.5,-677 740.5,-671 740.5,-671 740.5,-551 740.5,-551 740.5,-545 746.5,-539 752.5,-539"/>
<text xml:space="preserve" text-anchor="middle" x="794.75" y="-670.45" font-family="Helvetica,sans-Serif" font-weight="bold" font-size="9.00">middlewares</text>
</g>
<g id="clust11" class="cluster">
<title>cluster_utils/scripts</title>
<path fill="#ffffff" stroke="black" stroke-width="2" d="M989,-539C989,-539 1073.5,-539 1073.5,-539 1079.5,-539 1085.5,-545 1085.5,-551 1085.5,-551 1085.5,-671 1085.5,-671 1085.5,-677 1079.5,-683 1073.5,-683 1073.5,-683 989,-683 989,-683 983,-683 977,-677 977,-671 977,-671 977,-551 977,-551 977,-545 983,-539 989,-539"/>
<text xml:space="preserve" text-anchor="middle" x="1031.25" y="-670.45" font-family="Helvetica,sans-Serif" font-weight="bold" font-size="9.00">scripts</text>
</g>
<!-- .dependency&#45;cruiser.js -->
<g id="node1" class="node">
<title>.dependency&#45;cruiser.js</title>
<g id="a_node1"><a xlink:href=".dependency-cruiser.js" xlink:title=".dependency&#45;cruiser.js">
<path fill="#ccffcc" stroke="black" d="M102.08,-1188.25C102.08,-1188.25 6.17,-1188.25 6.17,-1188.25 3.08,-1188.25 0,-1185.17 0,-1182.08 0,-1182.08 0,-1175.92 0,-1175.92 0,-1172.83 3.08,-1169.75 6.17,-1169.75 6.17,-1169.75 102.08,-1169.75 102.08,-1169.75 105.17,-1169.75 108.25,-1172.83 108.25,-1175.92 108.25,-1175.92 108.25,-1182.08 108.25,-1182.08 108.25,-1185.17 105.17,-1188.25 102.08,-1188.25"/>
<text xml:space="preserve" text-anchor="start" x="8" y="-1175.7" font-family="Helvetica,sans-Serif" font-size="9.00">.dependency&#45;cruiser.js</text>
</a>
</g>
</g>
<!-- canvg -->
<g id="node2" class="node">
<title>canvg</title>
<g id="a_node2"><a xlink:title="canvg">
<path fill="#ffffcc" stroke="black" d="M1052.08,-2242.25C1052.08,-2242.25 1010.42,-2242.25 1010.42,-2242.25 1007.33,-2242.25 1004.25,-2239.17 1004.25,-2236.08 1004.25,-2236.08 1004.25,-2229.92 1004.25,-2229.92 1004.25,-2226.83 1007.33,-2223.75 1010.42,-2223.75 1010.42,-2223.75 1052.08,-2223.75 1052.08,-2223.75 1055.17,-2223.75 1058.25,-2226.83 1058.25,-2229.92 1058.25,-2229.92 1058.25,-2236.08 1058.25,-2236.08 1058.25,-2239.17 1055.17,-2242.25 1052.08,-2242.25"/>
<text xml:space="preserve" text-anchor="start" x="1018.88" y="-2229.7" font-family="Helvetica,sans-Serif" font-size="9.00">canvg</text>
</a>
</g>
</g>
<!-- child_process -->
<g id="node3" class="node">
<title>child_process</title>
<g id="a_node3"><a xlink:href="https://nodejs.org/api/child_process.html" xlink:title="child_process">
<path fill="#ffffcc" stroke="grey" d="M1288.33,-565.25C1288.33,-565.25 1227.67,-565.25 1227.67,-565.25 1224.58,-565.25 1221.5,-562.17 1221.5,-559.08 1221.5,-559.08 1221.5,-552.92 1221.5,-552.92 1221.5,-549.83 1224.58,-546.75 1227.67,-546.75 1227.67,-546.75 1288.33,-546.75 1288.33,-546.75 1291.42,-546.75 1294.5,-549.83 1294.5,-552.92 1294.5,-552.92 1294.5,-559.08 1294.5,-559.08 1294.5,-562.17 1291.42,-565.25 1288.33,-565.25"/>
<text xml:space="preserve" text-anchor="start" x="1229.5" y="-552.7" font-family="Helvetica,sans-Serif" font-size="9.00" fill="grey">child_process</text>
</a>
</g>
</g>
<!-- controllers/login.controller.js -->
<g id="node4" class="node">
<title>controllers/login.controller.js</title>
<g id="a_node4"><a xlink:href="controllers/login.controller.js" xlink:title="login.controller.js">
<path fill="#ffffcc" stroke="black" d="M575.83,-892.25C575.83,-892.25 503.17,-892.25 503.17,-892.25 500.08,-892.25 497,-889.17 497,-886.08 497,-886.08 497,-879.92 497,-879.92 497,-876.83 500.08,-873.75 503.17,-873.75 503.17,-873.75 575.83,-873.75 575.83,-873.75 578.92,-873.75 582,-876.83 582,-879.92 582,-879.92 582,-886.08 582,-886.08 582,-889.17 578.92,-892.25 575.83,-892.25"/>
<text xml:space="preserve" text-anchor="start" x="505" y="-879.7" font-family="Helvetica,sans-Serif" font-size="9.00">login.controller.js</text>
</a>
</g>
</g>
<!-- utils/middlewares/sessionManager.js -->
<g id="node5" class="node">
<title>utils/middlewares/sessionManager.js</title>
<g id="a_node5"><a xlink:href="utils/middlewares/sessionManager.js" xlink:title="sessionManager.js">
<path fill="#ffffcc" stroke="black" d="M834.83,-565.25C834.83,-565.25 754.67,-565.25 754.67,-565.25 751.58,-565.25 748.5,-562.17 748.5,-559.08 748.5,-559.08 748.5,-552.92 748.5,-552.92 748.5,-549.83 751.58,-546.75 754.67,-546.75 754.67,-546.75 834.83,-546.75 834.83,-546.75 837.92,-546.75 841,-549.83 841,-552.92 841,-552.92 841,-559.08 841,-559.08 841,-562.17 837.92,-565.25 834.83,-565.25"/>
<text xml:space="preserve" text-anchor="start" x="756.5" y="-552.7" font-family="Helvetica,sans-Serif" font-size="9.00">sessionManager.js</text>
</a>
</g>
</g>
<!-- controllers/login.controller.js&#45;&gt;utils/middlewares/sessionManager.js -->
<g id="edge1" class="edge">
<title>controllers/login.controller.js&#45;&gt;utils/middlewares/sessionManager.js</title>
<path fill="none" stroke="#000000" stroke-width="2" stroke-opacity="0.200000" d="M561.54,-873.37C577.16,-865.39 598.14,-852.81 612.5,-837 691.33,-750.18 657.01,-691.74 732.5,-602 742.99,-589.53 757.48,-578.45 769.73,-570.3"/>
<polygon fill="#000000" fill-opacity="0.200000" stroke="#000000" stroke-width="2" stroke-opacity="0.200000" points="770.56,-572.26 774.46,-567.25 768.28,-568.73 770.56,-572.26"/>
</g>
<!-- utils/scripts/postgrestHelper.js -->
<g id="node6" class="node">
<title>utils/scripts/postgrestHelper.js</title>
<g id="a_node6"><a xlink:href="utils/scripts/postgrestHelper.js" xlink:title="postgrestHelper.js">
<path fill="#ffffcc" stroke="black" d="M1069.83,-656.25C1069.83,-656.25 992.67,-656.25 992.67,-656.25 989.58,-656.25 986.5,-653.17 986.5,-650.08 986.5,-650.08 986.5,-643.92 986.5,-643.92 986.5,-640.83 989.58,-637.75 992.67,-637.75 992.67,-637.75 1069.83,-637.75 1069.83,-637.75 1072.92,-637.75 1076,-640.83 1076,-643.92 1076,-643.92 1076,-650.08 1076,-650.08 1076,-653.17 1072.92,-656.25 1069.83,-656.25"/>
<text xml:space="preserve" text-anchor="start" x="994.5" y="-643.7" font-family="Helvetica,sans-Serif" font-size="9.00">postgrestHelper.js</text>
</a>
</g>
</g>
<!-- controllers/login.controller.js&#45;&gt;utils/scripts/postgrestHelper.js -->
<g id="edge2" class="edge">
<title>controllers/login.controller.js&#45;&gt;utils/scripts/postgrestHelper.js</title>
<path fill="none" stroke="#000000" stroke-width="2" stroke-opacity="0.200000" d="M563.05,-873.32C578.8,-865.54 599.31,-853.23 612.5,-837 707.27,-720.43 608.84,-606.31 732.5,-521 775.12,-491.6 799.59,-505.51 849,-521 885.15,-532.33 973.56,-601.3 1011.95,-632.13"/>
<polygon fill="#000000" fill-opacity="0.200000" stroke="#000000" stroke-width="2" stroke-opacity="0.200000" points="1010.17,-633.39 1016.16,-635.52 1012.81,-630.12 1010.17,-633.39"/>
</g>
<!-- node_modules/bcryptjs -->
<g id="node7" class="node">
<title>node_modules/bcryptjs</title>
<g id="a_node7"><a xlink:href="https://www.npmjs.com/package/bcryptjs" xlink:title="bcryptjs">
<polygon fill="#c40b0a" fill-opacity="0.101961" stroke="black" points="1058.25,-1241.25 1006.31,-1241.25 1004.25,-1239.19 1004.25,-1222.75 1056.19,-1222.75 1058.25,-1224.81 1058.25,-1241.25"/>
<polyline fill="none" stroke="black" points="1056.19,-1239.19 1004.25,-1239.19"/>
<polyline fill="none" stroke="black" points="1056.19,-1239.19 1056.19,-1222.75"/>
<polyline fill="none" stroke="black" points="1056.19,-1239.19 1058.25,-1241.25"/>
<text xml:space="preserve" text-anchor="start" x="1015.5" y="-1228.7" font-family="Helvetica,sans-Serif" font-size="9.00" fill="#c40b0a">bcryptjs</text>
</a>
</g>
</g>
<!-- controllers/login.controller.js&#45;&gt;node_modules/bcryptjs -->
<g id="edge3" class="edge">
<title>controllers/login.controller.js&#45;&gt;node_modules/bcryptjs</title>
<path fill="none" stroke="#000000" stroke-opacity="0.200000" d="M554.11,-892.7C622.77,-941.62 930.98,-1161.26 1011.14,-1218.38"/>
<polygon fill="#000000" fill-opacity="0.200000" stroke="#000000" stroke-opacity="0.200000" points="1009.6,-1219.86 1015.7,-1221.63 1012.04,-1216.44 1009.6,-1219.86"/>
</g>
<!-- node_modules/jsonwebtoken -->
<g id="node8" class="node">
<title>node_modules/jsonwebtoken</title>
<g id="a_node8"><a xlink:href="https://www.npmjs.com/package/jsonwebtoken" xlink:title="jsonwebtoken">
<polygon fill="#c40b0a" fill-opacity="0.101961" stroke="black" points="1067.75,-1059.25 996.81,-1059.25 994.75,-1057.19 994.75,-1040.75 1065.69,-1040.75 1067.75,-1042.81 1067.75,-1059.25"/>
<polyline fill="none" stroke="black" points="1065.69,-1057.19 994.75,-1057.19"/>
<polyline fill="none" stroke="black" points="1065.69,-1057.19 1065.69,-1040.75"/>
<polyline fill="none" stroke="black" points="1065.69,-1057.19 1067.75,-1059.25"/>
<text xml:space="preserve" text-anchor="start" x="1002.75" y="-1046.7" font-family="Helvetica,sans-Serif" font-size="9.00" fill="#c40b0a">jsonwebtoken</text>
</a>
</g>
</g>
<!-- controllers/login.controller.js&#45;&gt;node_modules/jsonwebtoken -->
<g id="edge4" class="edge">
<title>controllers/login.controller.js&#45;&gt;node_modules/jsonwebtoken</title>
<path fill="none" stroke="#000000" stroke-opacity="0.200000" d="M582.32,-887.48C642.74,-894.88 757.26,-912.4 849,-947 911.86,-970.71 978.86,-1014.19 1010.94,-1036.3"/>
<polygon fill="#000000" fill-opacity="0.200000" stroke="#000000" stroke-opacity="0.200000" points="1009.51,-1037.87 1015.64,-1039.57 1011.91,-1034.42 1009.51,-1037.87"/>
</g>
<!-- utils/middlewares/sessionManager.js&#45;&gt;utils/scripts/postgrestHelper.js -->
<g id="edge31" class="edge">
<title>utils/middlewares/sessionManager.js&#45;&gt;utils/scripts/postgrestHelper.js</title>
<path fill="none" stroke="#000000" stroke-width="2" stroke-opacity="0.200000" d="M820.85,-565.74C863.34,-582.23 949.44,-615.64 996.94,-634.07"/>
<polygon fill="#000000" fill-opacity="0.200000" stroke="#000000" stroke-width="2" stroke-opacity="0.200000" points="996.16,-636.02 1002.51,-636.24 997.68,-632.11 996.16,-636.02"/>
</g>
<!-- utils/middlewares/sessionManager.js&#45;&gt;node_modules/jsonwebtoken -->
<g id="edge33" class="edge">
<title>utils/middlewares/sessionManager.js&#45;&gt;node_modules/jsonwebtoken</title>
<path fill="none" stroke="#000000" stroke-opacity="0.200000" d="M810.09,-565.47C821.88,-573.87 838.33,-587.1 849,-602 955.56,-750.83 1012.13,-971.36 1026.53,-1033.29"/>
<polygon fill="#000000" fill-opacity="0.200000" stroke="#000000" stroke-opacity="0.200000" points="1024.42,-1033.49 1027.8,-1038.87 1028.51,-1032.56 1024.42,-1033.49"/>
</g>
<!-- crypto -->
<g id="node11" class="node">
<title>crypto</title>
<g id="a_node11"><a xlink:href="https://nodejs.org/api/crypto.html" xlink:title="crypto">
<path fill="#ffffcc" stroke="grey" d="M1052.08,-800.25C1052.08,-800.25 1010.42,-800.25 1010.42,-800.25 1007.33,-800.25 1004.25,-797.17 1004.25,-794.08 1004.25,-794.08 1004.25,-787.92 1004.25,-787.92 1004.25,-784.83 1007.33,-781.75 1010.42,-781.75 1010.42,-781.75 1052.08,-781.75 1052.08,-781.75 1055.17,-781.75 1058.25,-784.83 1058.25,-787.92 1058.25,-787.92 1058.25,-794.08 1058.25,-794.08 1058.25,-797.17 1055.17,-800.25 1052.08,-800.25"/>
<text xml:space="preserve" text-anchor="start" x="1018.88" y="-787.7" font-family="Helvetica,sans-Serif" font-size="9.00" fill="grey">crypto</text>
</a>
</g>
</g>
<!-- utils/middlewares/sessionManager.js&#45;&gt;crypto -->
<g id="edge32" class="edge">
<title>utils/middlewares/sessionManager.js&#45;&gt;crypto</title>
<path fill="none" stroke="#000000" stroke-dasharray="5,2" stroke-opacity="0.200000" d="M807.45,-565.57C818.43,-574.67 835.18,-588.88 849,-602 914.18,-663.88 986.78,-742.9 1016.47,-775.68"/>
<polygon fill="#000000" fill-opacity="0.200000" stroke="#000000" stroke-opacity="0.200000" points="1014.91,-777.09 1020.49,-780.13 1018.02,-774.27 1014.91,-777.09"/>
</g>
<!-- utils/scripts/postgrestHelper.js&#45;&gt;node_modules/jsonwebtoken -->
<g id="edge34" class="edge">
<title>utils/scripts/postgrestHelper.js&#45;&gt;node_modules/jsonwebtoken</title>
<path fill="none" stroke="#000000" stroke-opacity="0.200000" d="M1017.95,-656.66C991.8,-676.57 934.38,-725.13 913,-782 875.83,-880.86 976.79,-995.69 1016.23,-1035.52"/>
<polygon fill="#000000" fill-opacity="0.200000" stroke="#000000" stroke-opacity="0.200000" points="1014.34,-1036.61 1020.08,-1039.36 1017.31,-1033.64 1014.34,-1036.61"/>
</g>
<!-- controllers/usuarios.controller.js -->
<g id="node9" class="node">
<title>controllers/usuarios.controller.js</title>
<g id="a_node9"><a xlink:href="controllers/usuarios.controller.js" xlink:title="usuarios.controller.js">
<path fill="#ffffcc" stroke="black" d="M583.33,-801.25C583.33,-801.25 495.67,-801.25 495.67,-801.25 492.58,-801.25 489.5,-798.17 489.5,-795.08 489.5,-795.08 489.5,-788.92 489.5,-788.92 489.5,-785.83 492.58,-782.75 495.67,-782.75 495.67,-782.75 583.33,-782.75 583.33,-782.75 586.42,-782.75 589.5,-785.83 589.5,-788.92 589.5,-788.92 589.5,-795.08 589.5,-795.08 589.5,-798.17 586.42,-801.25 583.33,-801.25"/>
<text xml:space="preserve" text-anchor="start" x="497.5" y="-788.7" font-family="Helvetica,sans-Serif" font-size="9.00">usuarios.controller.js</text>
</a>
</g>
</g>
<!-- controllers/usuarios.controller.js&#45;&gt;utils/scripts/postgrestHelper.js -->
<g id="edge6" class="edge">
<title>controllers/usuarios.controller.js&#45;&gt;utils/scripts/postgrestHelper.js</title>
<path fill="none" stroke="#000000" stroke-width="2" stroke-opacity="0.200000" d="M541.4,-782.53C546.88,-730.59 580.88,-479.32 732.5,-383 776.2,-355.24 804.06,-357.28 849,-383 946.51,-438.82 905.08,-514.68 977,-601 986.66,-612.59 999.39,-623.7 1009.98,-632.1"/>
<polygon fill="#000000" fill-opacity="0.200000" stroke="#000000" stroke-width="2" stroke-opacity="0.200000" points="1008.48,-633.6 1014.52,-635.61 1011.05,-630.28 1008.48,-633.6"/>
</g>
<!-- utils/IAM.json -->
<g id="node10" class="node">
<title>utils/IAM.json</title>
<g id="a_node10"><a xlink:href="utils/IAM.json" xlink:title="IAM.json">
<path fill="#ffee44" stroke="black" d="M815.58,-747.25C815.58,-747.25 773.92,-747.25 773.92,-747.25 770.83,-747.25 767.75,-744.17 767.75,-741.08 767.75,-741.08 767.75,-734.92 767.75,-734.92 767.75,-731.83 770.83,-728.75 773.92,-728.75 773.92,-728.75 815.58,-728.75 815.58,-728.75 818.67,-728.75 821.75,-731.83 821.75,-734.92 821.75,-734.92 821.75,-741.08 821.75,-741.08 821.75,-744.17 818.67,-747.25 815.58,-747.25"/>
<text xml:space="preserve" text-anchor="start" x="777.12" y="-734.7" font-family="Helvetica,sans-Serif" font-size="9.00">IAM.json</text>
</a>
</g>
</g>
<!-- controllers/usuarios.controller.js&#45;&gt;utils/IAM.json -->
<g id="edge5" class="edge">
<title>controllers/usuarios.controller.js&#45;&gt;utils/IAM.json</title>
<path fill="none" stroke="#000000" stroke-width="2" stroke-opacity="0.200000" d="M586.07,-782.28C635.63,-771.72 713.77,-755.05 758.74,-745.47"/>
<polygon fill="#000000" fill-opacity="0.200000" stroke="#000000" stroke-width="2" stroke-opacity="0.200000" points="759.15,-747.52 764.58,-744.22 758.27,-743.42 759.15,-747.52"/>
</g>
<!-- dompurify -->
<g id="node12" class="node">
<title>dompurify</title>
<g id="a_node12"><a xlink:title="dompurify">
<path fill="#ffffcc" stroke="black" d="M1053.33,-2151.25C1053.33,-2151.25 1009.17,-2151.25 1009.17,-2151.25 1006.08,-2151.25 1003,-2148.17 1003,-2145.08 1003,-2145.08 1003,-2138.92 1003,-2138.92 1003,-2135.83 1006.08,-2132.75 1009.17,-2132.75 1009.17,-2132.75 1053.33,-2132.75 1053.33,-2132.75 1056.42,-2132.75 1059.5,-2135.83 1059.5,-2138.92 1059.5,-2138.92 1059.5,-2145.08 1059.5,-2145.08 1059.5,-2148.17 1056.42,-2151.25 1053.33,-2151.25"/>
<text xml:space="preserve" text-anchor="start" x="1011" y="-2138.7" font-family="Helvetica,sans-Serif" font-size="9.00">dompurify</text>
</a>
</g>
</g>
<!-- html2canvas -->
<g id="node13" class="node">
<title>html2canvas</title>
<g id="a_node13"><a xlink:title="html2canvas">
<path fill="#ffffcc" stroke="black" d="M1058.96,-2060.25C1058.96,-2060.25 1003.54,-2060.25 1003.54,-2060.25 1000.46,-2060.25 997.38,-2057.17 997.38,-2054.08 997.38,-2054.08 997.38,-2047.92 997.38,-2047.92 997.38,-2044.83 1000.46,-2041.75 1003.54,-2041.75 1003.54,-2041.75 1058.96,-2041.75 1058.96,-2041.75 1062.04,-2041.75 1065.12,-2044.83 1065.12,-2047.92 1065.12,-2047.92 1065.12,-2054.08 1065.12,-2054.08 1065.12,-2057.17 1062.04,-2060.25 1058.96,-2060.25"/>
<text xml:space="preserve" text-anchor="start" x="1005.38" y="-2047.7" font-family="Helvetica,sans-Serif" font-size="9.00">html2canvas</text>
</a>
</g>
</g>
<!-- node_modules/canvg -->
<g id="node14" class="node">
<title>node_modules/canvg</title>
<g id="a_node14"><a xlink:href="https://www.npmjs.com/package/canvg" xlink:title="canvg">
<polygon fill="#c40b0a" fill-opacity="0.101961" stroke="black" points="1058.25,-1787.25 1006.31,-1787.25 1004.25,-1785.19 1004.25,-1768.75 1056.19,-1768.75 1058.25,-1770.81 1058.25,-1787.25"/>
<polyline fill="none" stroke="black" points="1056.19,-1785.19 1004.25,-1785.19"/>
<polyline fill="none" stroke="black" points="1056.19,-1785.19 1056.19,-1768.75"/>
<polyline fill="none" stroke="black" points="1056.19,-1785.19 1058.25,-1787.25"/>
<text xml:space="preserve" text-anchor="start" x="1018.88" y="-1774.7" font-family="Helvetica,sans-Serif" font-size="9.00" fill="#c40b0a">canvg</text>
</a>
</g>
</g>
<!-- node_modules/compression -->
<g id="node15" class="node">
<title>node_modules/compression</title>
<g id="a_node15"><a xlink:href="https://www.npmjs.com/package/compression" xlink:title="compression">
<polygon fill="#c40b0a" fill-opacity="0.101961" stroke="black" points="1065.5,-1605.25 999.06,-1605.25 997,-1603.19 997,-1586.75 1063.44,-1586.75 1065.5,-1588.81 1065.5,-1605.25"/>
<polyline fill="none" stroke="black" points="1063.44,-1603.19 997,-1603.19"/>
<polyline fill="none" stroke="black" points="1063.44,-1603.19 1063.44,-1586.75"/>
<polyline fill="none" stroke="black" points="1063.44,-1603.19 1065.5,-1605.25"/>
<text xml:space="preserve" text-anchor="start" x="1005" y="-1592.7" font-family="Helvetica,sans-Serif" font-size="9.00" fill="#c40b0a">compression</text>
</a>
</g>
</g>
<!-- node_modules/cookie&#45;parser -->
<g id="node16" class="node">
<title>node_modules/cookie&#45;parser</title>
<g id="a_node16"><a xlink:href="https://www.npmjs.com/package/cookie-parser" xlink:title="cookie&#45;parser">
<polygon fill="#c40b0a" fill-opacity="0.101961" stroke="black" points="1067.38,-1514.25 997.18,-1514.25 995.12,-1512.19 995.12,-1495.75 1065.32,-1495.75 1067.38,-1497.81 1067.38,-1514.25"/>
<polyline fill="none" stroke="black" points="1065.32,-1512.19 995.12,-1512.19"/>
<polyline fill="none" stroke="black" points="1065.32,-1512.19 1065.32,-1495.75"/>
<polyline fill="none" stroke="black" points="1065.32,-1512.19 1067.38,-1514.25"/>
<text xml:space="preserve" text-anchor="start" x="1003.12" y="-1501.7" font-family="Helvetica,sans-Serif" font-size="9.00" fill="#c40b0a">cookie&#45;parser</text>
</a>
</g>
</g>
<!-- node_modules/dompurify -->
<g id="node17" class="node">
<title>node_modules/dompurify</title>
<g id="a_node17"><a xlink:href="https://www.npmjs.com/package/dompurify" xlink:title="dompurify">
<polygon fill="#c40b0a" fill-opacity="0.101961" stroke="black" points="1059.5,-1878.25 1005.06,-1878.25 1003,-1876.19 1003,-1859.75 1057.44,-1859.75 1059.5,-1861.81 1059.5,-1878.25"/>
<polyline fill="none" stroke="black" points="1057.44,-1876.19 1003,-1876.19"/>
<polyline fill="none" stroke="black" points="1057.44,-1876.19 1057.44,-1859.75"/>
<polyline fill="none" stroke="black" points="1057.44,-1876.19 1059.5,-1878.25"/>
<text xml:space="preserve" text-anchor="start" x="1011" y="-1865.7" font-family="Helvetica,sans-Serif" font-size="9.00" fill="#c40b0a">dompurify</text>
</a>
</g>
</g>
<!-- node_modules/dotenv -->
<g id="node18" class="node">
<title>node_modules/dotenv</title>
<g id="a_node18"><a xlink:href="https://www.npmjs.com/package/dotenv" xlink:title="dotenv">
<polygon fill="#c40b0a" fill-opacity="0.101961" stroke="black" points="1058.25,-1423.25 1006.31,-1423.25 1004.25,-1421.19 1004.25,-1404.75 1056.19,-1404.75 1058.25,-1406.81 1058.25,-1423.25"/>
<polyline fill="none" stroke="black" points="1056.19,-1421.19 1004.25,-1421.19"/>
<polyline fill="none" stroke="black" points="1056.19,-1421.19 1056.19,-1404.75"/>
<polyline fill="none" stroke="black" points="1056.19,-1421.19 1058.25,-1423.25"/>
<text xml:space="preserve" text-anchor="start" x="1017.38" y="-1410.7" font-family="Helvetica,sans-Serif" font-size="9.00" fill="#c40b0a">dotenv</text>
</a>
</g>
</g>
<!-- node_modules/express -->
<g id="node19" class="node">
<title>node_modules/express</title>
<g id="a_node19"><a xlink:href="https://www.npmjs.com/package/express" xlink:title="express">
<polygon fill="#c40b0a" fill-opacity="0.101961" stroke="black" points="1058.25,-1332.25 1006.31,-1332.25 1004.25,-1330.19 1004.25,-1313.75 1056.19,-1313.75 1058.25,-1315.81 1058.25,-1332.25"/>
<polyline fill="none" stroke="black" points="1056.19,-1330.19 1004.25,-1330.19"/>
<polyline fill="none" stroke="black" points="1056.19,-1330.19 1056.19,-1313.75"/>
<polyline fill="none" stroke="black" points="1056.19,-1330.19 1058.25,-1332.25"/>
<text xml:space="preserve" text-anchor="start" x="1015.12" y="-1319.7" font-family="Helvetica,sans-Serif" font-size="9.00" fill="#c40b0a">express</text>
</a>
</g>
</g>
<!-- node_modules/express&#45;rate&#45;limit -->
<g id="node20" class="node">
<title>node_modules/express&#45;rate&#45;limit</title>
<g id="a_node20"><a xlink:href="https://www.npmjs.com/package/express-rate-limit" xlink:title="express&#45;rate&#45;limit">
<polygon fill="#c40b0a" fill-opacity="0.101961" stroke="black" points="1074.5,-1150.25 990.06,-1150.25 988,-1148.19 988,-1131.75 1072.44,-1131.75 1074.5,-1133.81 1074.5,-1150.25"/>
<polyline fill="none" stroke="black" points="1072.44,-1148.19 988,-1148.19"/>
<polyline fill="none" stroke="black" points="1072.44,-1148.19 1072.44,-1131.75"/>
<polyline fill="none" stroke="black" points="1072.44,-1148.19 1074.5,-1150.25"/>
<text xml:space="preserve" text-anchor="start" x="996" y="-1137.7" font-family="Helvetica,sans-Serif" font-size="9.00" fill="#c40b0a">express&#45;rate&#45;limit</text>
</a>
</g>
</g>
<!-- node_modules/html2canvas -->
<g id="node21" class="node">
<title>node_modules/html2canvas</title>
<g id="a_node21"><a xlink:href="https://www.npmjs.com/package/html2canvas" xlink:title="html2canvas">
<polygon fill="#c40b0a" fill-opacity="0.101961" stroke="black" points="1065.12,-1969.25 999.43,-1969.25 997.38,-1967.19 997.38,-1950.75 1063.07,-1950.75 1065.12,-1952.81 1065.12,-1969.25"/>
<polyline fill="none" stroke="black" points="1063.07,-1967.19 997.38,-1967.19"/>
<polyline fill="none" stroke="black" points="1063.07,-1967.19 1063.07,-1950.75"/>
<polyline fill="none" stroke="black" points="1063.07,-1967.19 1065.12,-1969.25"/>
<text xml:space="preserve" text-anchor="start" x="1005.38" y="-1956.7" font-family="Helvetica,sans-Serif" font-size="9.00" fill="#c40b0a">html2canvas</text>
</a>
</g>
</g>
<!-- node_modules/jspdf -->
<g id="node22" class="node">
<title>node_modules/jspdf</title>
<g id="a_node22"><a xlink:href="https://www.npmjs.com/package/jspdf" xlink:title="jspdf">
<polygon fill="#c40b0a" fill-opacity="0.101961" stroke="black" points="1058.25,-1696.25 1006.31,-1696.25 1004.25,-1694.19 1004.25,-1677.75 1056.19,-1677.75 1058.25,-1679.81 1058.25,-1696.25"/>
<polyline fill="none" stroke="black" points="1056.19,-1694.19 1004.25,-1694.19"/>
<polyline fill="none" stroke="black" points="1056.19,-1694.19 1056.19,-1677.75"/>
<polyline fill="none" stroke="black" points="1056.19,-1694.19 1058.25,-1696.25"/>
<text xml:space="preserve" text-anchor="start" x="1021.5" y="-1683.7" font-family="Helvetica,sans-Serif" font-size="9.00" fill="#c40b0a">jspdf</text>
</a>
</g>
</g>
<!-- path -->
<g id="node23" class="node">
<title>path</title>
<g id="a_node23"><a xlink:href="https://nodejs.org/api/path.html" xlink:title="path">
<path fill="#ffffcc" stroke="grey" d="M1278.83,-242.25C1278.83,-242.25 1237.17,-242.25 1237.17,-242.25 1234.08,-242.25 1231,-239.17 1231,-236.08 1231,-236.08 1231,-229.92 1231,-229.92 1231,-226.83 1234.08,-223.75 1237.17,-223.75 1237.17,-223.75 1278.83,-223.75 1278.83,-223.75 1281.92,-223.75 1285,-226.83 1285,-229.92 1285,-229.92 1285,-236.08 1285,-236.08 1285,-239.17 1281.92,-242.25 1278.83,-242.25"/>
<text xml:space="preserve" text-anchor="start" x="1249" y="-229.7" font-family="Helvetica,sans-Serif" font-size="9.00" fill="grey">path</text>
</a>
</g>
</g>
<!-- public/js/login/login.js -->
<g id="node24" class="node">
<title>public/js/login/login.js</title>
<g id="a_node24"><a xlink:href="public/js/login/login.js" xlink:title="no&#45;orphans">
<path fill="#ccffcc" stroke="orange" d="M560.33,-2005.25C560.33,-2005.25 518.67,-2005.25 518.67,-2005.25 515.58,-2005.25 512.5,-2002.17 512.5,-1999.08 512.5,-1999.08 512.5,-1992.92 512.5,-1992.92 512.5,-1989.83 515.58,-1986.75 518.67,-1986.75 518.67,-1986.75 560.33,-1986.75 560.33,-1986.75 563.42,-1986.75 566.5,-1989.83 566.5,-1992.92 566.5,-1992.92 566.5,-1999.08 566.5,-1999.08 566.5,-2002.17 563.42,-2005.25 560.33,-2005.25"/>
<text xml:space="preserve" text-anchor="start" x="524.88" y="-1992.7" font-family="Helvetica,sans-Serif" font-size="9.00" fill="orange">login.js</text>
</a>
</g>
</g>
<!-- public/js/scripts/alpine.js -->
<g id="node25" class="node">
<title>public/js/scripts/alpine.js</title>
<g id="a_node25"><a xlink:href="public/js/scripts/alpine.js" xlink:title="no&#45;orphans">
<path fill="#ccffcc" stroke="orange" d="M560.33,-2096.25C560.33,-2096.25 518.67,-2096.25 518.67,-2096.25 515.58,-2096.25 512.5,-2093.17 512.5,-2090.08 512.5,-2090.08 512.5,-2083.92 512.5,-2083.92 512.5,-2080.83 515.58,-2077.75 518.67,-2077.75 518.67,-2077.75 560.33,-2077.75 560.33,-2077.75 563.42,-2077.75 566.5,-2080.83 566.5,-2083.92 566.5,-2083.92 566.5,-2090.08 566.5,-2090.08 566.5,-2093.17 563.42,-2096.25 560.33,-2096.25"/>
<text xml:space="preserve" text-anchor="start" x="522.25" y="-2083.7" font-family="Helvetica,sans-Serif" font-size="9.00" fill="orange">alpine.js</text>
</a>
</g>
</g>
<!-- public/js/scripts/bootstrap.js -->
<g id="node26" class="node">
<title>public/js/scripts/bootstrap.js</title>
<g id="a_node26"><a xlink:href="public/js/scripts/bootstrap.js" xlink:title="no&#45;orphans">
<path fill="#ccffcc" stroke="orange" d="M564.96,-2187.25C564.96,-2187.25 514.04,-2187.25 514.04,-2187.25 510.96,-2187.25 507.88,-2184.17 507.88,-2181.08 507.88,-2181.08 507.88,-2174.92 507.88,-2174.92 507.88,-2171.83 510.96,-2168.75 514.04,-2168.75 514.04,-2168.75 564.96,-2168.75 564.96,-2168.75 568.04,-2168.75 571.12,-2171.83 571.12,-2174.92 571.12,-2174.92 571.12,-2181.08 571.12,-2181.08 571.12,-2184.17 568.04,-2187.25 564.96,-2187.25"/>
<text xml:space="preserve" text-anchor="start" x="515.88" y="-2174.7" font-family="Helvetica,sans-Serif" font-size="9.00" fill="orange">bootstrap.js</text>
</a>
</g>
</g>
<!-- public/js/scripts/flatpickr.js -->
<g id="node27" class="node">
<title>public/js/scripts/flatpickr.js</title>
<g id="a_node27"><a xlink:href="public/js/scripts/flatpickr.js" xlink:title="no&#45;orphans">
<path fill="#ccffcc" stroke="orange" d="M561.21,-2278.25C561.21,-2278.25 517.79,-2278.25 517.79,-2278.25 514.71,-2278.25 511.62,-2275.17 511.62,-2272.08 511.62,-2272.08 511.62,-2265.92 511.62,-2265.92 511.62,-2262.83 514.71,-2259.75 517.79,-2259.75 517.79,-2259.75 561.21,-2259.75 561.21,-2259.75 564.29,-2259.75 567.38,-2262.83 567.38,-2265.92 567.38,-2265.92 567.38,-2272.08 567.38,-2272.08 567.38,-2275.17 564.29,-2278.25 561.21,-2278.25"/>
<text xml:space="preserve" text-anchor="start" x="519.62" y="-2265.7" font-family="Helvetica,sans-Serif" font-size="9.00" fill="orange">flatpickr.js</text>
</a>
</g>
</g>
<!-- public/js/scripts/flatpickr.spanish.js -->
<g id="node28" class="node">
<title>public/js/scripts/flatpickr.spanish.js</title>
<g id="a_node28"><a xlink:href="public/js/scripts/flatpickr.spanish.js" xlink:title="no&#45;orphans">
<path fill="#ccffcc" stroke="orange" d="M578.46,-2369.25C578.46,-2369.25 500.54,-2369.25 500.54,-2369.25 497.46,-2369.25 494.38,-2366.17 494.38,-2363.08 494.38,-2363.08 494.38,-2356.92 494.38,-2356.92 494.38,-2353.83 497.46,-2350.75 500.54,-2350.75 500.54,-2350.75 578.46,-2350.75 578.46,-2350.75 581.54,-2350.75 584.62,-2353.83 584.62,-2356.92 584.62,-2356.92 584.62,-2363.08 584.62,-2363.08 584.62,-2366.17 581.54,-2369.25 578.46,-2369.25"/>
<text xml:space="preserve" text-anchor="start" x="502.38" y="-2356.7" font-family="Helvetica,sans-Serif" font-size="9.00" fill="orange">flatpickr.spanish.js</text>
</a>
</g>
</g>
<!-- public/js/scripts/jspdf.autotable.js -->
<g id="node29" class="node">
<title>public/js/scripts/jspdf.autotable.js</title>
<g id="a_node29"><a xlink:href="public/js/scripts/jspdf.autotable.js" xlink:title="jspdf.autotable.js">
<path fill="#ffffcc" stroke="black" d="M575.83,-2460.25C575.83,-2460.25 503.17,-2460.25 503.17,-2460.25 500.08,-2460.25 497,-2457.17 497,-2454.08 497,-2454.08 497,-2447.92 497,-2447.92 497,-2444.83 500.08,-2441.75 503.17,-2441.75 503.17,-2441.75 575.83,-2441.75 575.83,-2441.75 578.92,-2441.75 582,-2444.83 582,-2447.92 582,-2447.92 582,-2454.08 582,-2454.08 582,-2457.17 578.92,-2460.25 575.83,-2460.25"/>
<text xml:space="preserve" text-anchor="start" x="505" y="-2447.7" font-family="Helvetica,sans-Serif" font-size="9.00">jspdf.autotable.js</text>
</a>
</g>
</g>
<!-- public/js/scripts/jspdf.autotable.js&#45;&gt;node_modules/jspdf -->
<g id="edge8" class="edge">
<title>public/js/scripts/jspdf.autotable.js&#45;&gt;node_modules/jspdf</title>
<path fill="none" stroke="#000000" stroke-opacity="0.200000" d="M563.01,-2441.28C578.74,-2433.48 599.24,-2421.17 612.5,-2405 705.66,-2291.41 662.77,-2226.31 732.5,-2097 774.94,-2018.31 799,-2007.12 849,-1933 908.02,-1845.51 907.9,-1812.77 977,-1733 987.26,-1721.16 1000.6,-1709.64 1011.37,-1701.09"/>
<polygon fill="#000000" fill-opacity="0.200000" stroke="#000000" stroke-opacity="0.200000" points="1012.41,-1702.93 1015.85,-1697.59 1009.83,-1699.62 1012.41,-1702.93"/>
</g>
<!-- public/js/scripts/jspdf.js -->
<g id="node30" class="node">
<title>public/js/scripts/jspdf.js</title>
<g id="a_node30"><a xlink:href="public/js/scripts/jspdf.js" xlink:title="jspdf.js">
<path fill="#ffffcc" stroke="black" d="M815.58,-2151.25C815.58,-2151.25 773.92,-2151.25 773.92,-2151.25 770.83,-2151.25 767.75,-2148.17 767.75,-2145.08 767.75,-2145.08 767.75,-2138.92 767.75,-2138.92 767.75,-2135.83 770.83,-2132.75 773.92,-2132.75 773.92,-2132.75 815.58,-2132.75 815.58,-2132.75 818.67,-2132.75 821.75,-2135.83 821.75,-2138.92 821.75,-2138.92 821.75,-2145.08 821.75,-2145.08 821.75,-2148.17 818.67,-2151.25 815.58,-2151.25"/>
<text xml:space="preserve" text-anchor="start" x="780.5" y="-2138.7" font-family="Helvetica,sans-Serif" font-size="9.00">jspdf.js</text>
</a>
</g>
</g>
<!-- public/js/scripts/jspdf.autotable.js&#45;&gt;public/js/scripts/jspdf.js -->
<g id="edge7" class="edge">
<title>public/js/scripts/jspdf.autotable.js&#45;&gt;public/js/scripts/jspdf.js</title>
<path fill="none" stroke="#000000" stroke-width="2" stroke-opacity="0.200000" d="M560.01,-2441.32C575.4,-2433.07 596.81,-2420.15 612.5,-2405 694.4,-2325.91 761.51,-2204.52 784.88,-2159.55"/>
<polygon fill="#000000" fill-opacity="0.200000" stroke="#000000" stroke-width="2" stroke-opacity="0.200000" points="786.7,-2160.6 787.58,-2154.3 782.97,-2158.68 786.7,-2160.6"/>
</g>
<!-- public/js/scripts/jspdf.js&#45;&gt;canvg -->
<g id="edge9" class="edge">
<title>public/js/scripts/jspdf.js&#45;&gt;canvg</title>
<g id="a_edge9"><a xlink:title="not&#45;to&#45;unresolvable">
<path fill="none" stroke="red" stroke-width="2" d="M820.85,-2151.74C863.34,-2168.23 949.44,-2201.64 996.94,-2220.07"/>
<polygon fill="red" stroke="red" stroke-width="2" points="996.16,-2222.02 1002.51,-2222.24 997.68,-2218.11 996.16,-2222.02"/>
</a>
</g>
<text xml:space="preserve" text-anchor="middle" x="873.03" y="-2178.86" font-family="Helvetica,sans-Serif" font-size="9.00" fill="red">not&#45;to&#45;unresolvable</text>
</g>
<!-- public/js/scripts/jspdf.js&#45;&gt;dompurify -->
<g id="edge11" class="edge">
<title>public/js/scripts/jspdf.js&#45;&gt;dompurify</title>
<g id="a_edge11"><a xlink:title="not&#45;to&#45;unresolvable">
<path fill="none" stroke="red" stroke-width="2" d="M822.19,-2142C864.28,-2142 946.58,-2142 994.09,-2142"/>
<polygon fill="red" stroke="red" stroke-width="2" points="993.79,-2144.1 999.79,-2142 993.79,-2139.9 993.79,-2144.1"/>
</a>
</g>
<text xml:space="preserve" text-anchor="middle" x="873.07" y="-2133.45" font-family="Helvetica,sans-Serif" font-size="9.00" fill="red">not&#45;to&#45;unresolvable</text>
</g>
<!-- public/js/scripts/jspdf.js&#45;&gt;html2canvas -->
<g id="edge13" class="edge">
<title>public/js/scripts/jspdf.js&#45;&gt;html2canvas</title>
<g id="a_edge13"><a xlink:title="not&#45;to&#45;unresolvable">
<path fill="none" stroke="red" stroke-width="2" d="M820.85,-2132.26C863.34,-2115.77 949.44,-2082.36 996.94,-2063.93"/>
<polygon fill="red" stroke="red" stroke-width="2" points="997.68,-2065.89 1002.51,-2061.76 996.16,-2061.98 997.68,-2065.89"/>
</a>
</g>
<text xml:space="preserve" text-anchor="middle" x="873.03" y="-2088.04" font-family="Helvetica,sans-Serif" font-size="9.00" fill="red">not&#45;to&#45;unresolvable</text>
</g>
<!-- public/js/scripts/jspdf.js&#45;&gt;node_modules/canvg -->
<g id="edge10" class="edge">
<title>public/js/scripts/jspdf.js&#45;&gt;node_modules/canvg</title>
<path fill="none" stroke="#000000" stroke-opacity="0.200000" d="M805.2,-2132.33C816.51,-2120.43 835.59,-2099.32 849,-2079 918.86,-1973.17 899.07,-1924.04 977,-1824 986.5,-1811.8 999.62,-1800.42 1010.46,-1792.03"/>
<polygon fill="#000000" fill-opacity="0.200000" stroke="#000000" stroke-opacity="0.200000" points="1011.48,-1793.9 1015.01,-1788.6 1008.95,-1790.54 1011.48,-1793.9"/>
</g>
<!-- public/js/scripts/jspdf.js&#45;&gt;node_modules/dompurify -->
<g id="edge12" class="edge">
<title>public/js/scripts/jspdf.js&#45;&gt;node_modules/dompurify</title>
<path fill="none" stroke="#000000" stroke-opacity="0.200000" d="M804.17,-2132.28C814.77,-2119.99 833.47,-2098.12 849,-2079 907.3,-2007.23 913.27,-1981.99 977,-1915 987.94,-1903.5 1001.49,-1891.82 1012.19,-1883.11"/>
<polygon fill="#000000" fill-opacity="0.200000" stroke="#000000" stroke-opacity="0.200000" points="1013.26,-1884.94 1016.62,-1879.55 1010.63,-1881.67 1013.26,-1884.94"/>
</g>
<!-- public/js/scripts/jspdf.js&#45;&gt;node_modules/html2canvas -->
<g id="edge14" class="edge">
<title>public/js/scripts/jspdf.js&#45;&gt;node_modules/html2canvas</title>
<path fill="none" stroke="#000000" stroke-opacity="0.200000" d="M808.03,-2132.47C846.72,-2102.44 966.25,-2009.67 1012.1,-1974.09"/>
<polygon fill="#000000" fill-opacity="0.200000" stroke="#000000" stroke-opacity="0.200000" points="1013.16,-1975.92 1016.62,-1970.58 1010.59,-1972.6 1013.16,-1975.92"/>
</g>
<!-- worker_threads -->
<g id="node31" class="node">
<title>worker_threads</title>
<g id="a_node31"><a xlink:href="https://nodejs.org/api/worker_threads.html" xlink:title="worker_threads">
<path fill="#ffffcc" stroke="grey" d="M1064.96,-2333.25C1064.96,-2333.25 997.54,-2333.25 997.54,-2333.25 994.46,-2333.25 991.38,-2330.17 991.38,-2327.08 991.38,-2327.08 991.38,-2320.92 991.38,-2320.92 991.38,-2317.83 994.46,-2314.75 997.54,-2314.75 997.54,-2314.75 1064.96,-2314.75 1064.96,-2314.75 1068.04,-2314.75 1071.12,-2317.83 1071.12,-2320.92 1071.12,-2320.92 1071.12,-2327.08 1071.12,-2327.08 1071.12,-2330.17 1068.04,-2333.25 1064.96,-2333.25"/>
<text xml:space="preserve" text-anchor="start" x="999.38" y="-2320.7" font-family="Helvetica,sans-Serif" font-size="9.00" fill="grey">worker_threads</text>
</a>
</g>
</g>
<!-- public/js/scripts/jspdf.js&#45;&gt;worker_threads -->
<g id="edge15" class="edge">
<title>public/js/scripts/jspdf.js&#45;&gt;worker_threads</title>
<path fill="none" stroke="#000000" stroke-dasharray="5,2" stroke-opacity="0.200000" d="M808.03,-2151.53C846.72,-2181.56 966.25,-2274.33 1012.1,-2309.91"/>
<polygon fill="#000000" fill-opacity="0.200000" stroke="#000000" stroke-opacity="0.200000" points="1010.59,-2311.4 1016.62,-2313.42 1013.16,-2308.08 1010.59,-2311.4"/>
</g>
<!-- public/js/scripts/luxon.js -->
<g id="node32" class="node">
<title>public/js/scripts/luxon.js</title>
<g id="a_node32"><a xlink:href="public/js/scripts/luxon.js" xlink:title="no&#45;orphans">
<path fill="#ccffcc" stroke="orange" d="M560.33,-2551.25C560.33,-2551.25 518.67,-2551.25 518.67,-2551.25 515.58,-2551.25 512.5,-2548.17 512.5,-2545.08 512.5,-2545.08 512.5,-2538.92 512.5,-2538.92 512.5,-2535.83 515.58,-2532.75 518.67,-2532.75 518.67,-2532.75 560.33,-2532.75 560.33,-2532.75 563.42,-2532.75 566.5,-2535.83 566.5,-2538.92 566.5,-2538.92 566.5,-2545.08 566.5,-2545.08 566.5,-2548.17 563.42,-2551.25 560.33,-2551.25"/>
<text xml:space="preserve" text-anchor="start" x="523.75" y="-2538.7" font-family="Helvetica,sans-Serif" font-size="9.00" fill="orange">luxon.js</text>
</a>
</g>
</g>
<!-- public/js/scripts/tabulator.js -->
<g id="node33" class="node">
<title>public/js/scripts/tabulator.js</title>
<g id="a_node33"><a xlink:href="public/js/scripts/tabulator.js" xlink:title="no&#45;orphans">
<path fill="#ccffcc" stroke="orange" d="M563.46,-2642.25C563.46,-2642.25 515.54,-2642.25 515.54,-2642.25 512.46,-2642.25 509.38,-2639.17 509.38,-2636.08 509.38,-2636.08 509.38,-2629.92 509.38,-2629.92 509.38,-2626.83 512.46,-2623.75 515.54,-2623.75 515.54,-2623.75 563.46,-2623.75 563.46,-2623.75 566.54,-2623.75 569.62,-2626.83 569.62,-2629.92 569.62,-2629.92 569.62,-2636.08 569.62,-2636.08 569.62,-2639.17 566.54,-2642.25 563.46,-2642.25"/>
<text xml:space="preserve" text-anchor="start" x="517.38" y="-2629.7" font-family="Helvetica,sans-Serif" font-size="9.00" fill="orange">tabulator.js</text>
</a>
</g>
</g>
<!-- public/js/scripts/validator.js -->
<g id="node34" class="node">
<title>public/js/scripts/validator.js</title>
<g id="a_node34"><a xlink:href="public/js/scripts/validator.js" xlink:title="no&#45;orphans">
<path fill="#ccffcc" stroke="orange" d="M563.08,-2733.25C563.08,-2733.25 515.92,-2733.25 515.92,-2733.25 512.83,-2733.25 509.75,-2730.17 509.75,-2727.08 509.75,-2727.08 509.75,-2720.92 509.75,-2720.92 509.75,-2717.83 512.83,-2714.75 515.92,-2714.75 515.92,-2714.75 563.08,-2714.75 563.08,-2714.75 566.17,-2714.75 569.25,-2717.83 569.25,-2720.92 569.25,-2720.92 569.25,-2727.08 569.25,-2727.08 569.25,-2730.17 566.17,-2733.25 563.08,-2733.25"/>
<text xml:space="preserve" text-anchor="start" x="517.75" y="-2720.7" font-family="Helvetica,sans-Serif" font-size="9.00" fill="orange">validator.js</text>
</a>
</g>
</g>
<!-- public/js/scripts/xlsx.js -->
<g id="node35" class="node">
<title>public/js/scripts/xlsx.js</title>
<g id="a_node35"><a xlink:href="public/js/scripts/xlsx.js" xlink:title="no&#45;orphans">
<path fill="#ccffcc" stroke="orange" d="M560.33,-2824.25C560.33,-2824.25 518.67,-2824.25 518.67,-2824.25 515.58,-2824.25 512.5,-2821.17 512.5,-2818.08 512.5,-2818.08 512.5,-2811.92 512.5,-2811.92 512.5,-2808.83 515.58,-2805.75 518.67,-2805.75 518.67,-2805.75 560.33,-2805.75 560.33,-2805.75 563.42,-2805.75 566.5,-2808.83 566.5,-2811.92 566.5,-2811.92 566.5,-2818.08 566.5,-2818.08 566.5,-2821.17 563.42,-2824.25 560.33,-2824.25"/>
<text xml:space="preserve" text-anchor="start" x="527.12" y="-2811.7" font-family="Helvetica,sans-Serif" font-size="9.00" fill="orange">xlsx.js</text>
</a>
</g>
</g>
<!-- public/js/usuarios/tableroUsuariosActivados.js -->
<g id="node36" class="node">
<title>public/js/usuarios/tableroUsuariosActivados.js</title>
<g id="a_node36"><a xlink:href="public/js/usuarios/tableroUsuariosActivados.js" xlink:title="no&#45;orphans">
<path fill="#ccffcc" stroke="orange" d="M598.33,-2915.25C598.33,-2915.25 480.67,-2915.25 480.67,-2915.25 477.58,-2915.25 474.5,-2912.17 474.5,-2909.08 474.5,-2909.08 474.5,-2902.92 474.5,-2902.92 474.5,-2899.83 477.58,-2896.75 480.67,-2896.75 480.67,-2896.75 598.33,-2896.75 598.33,-2896.75 601.42,-2896.75 604.5,-2899.83 604.5,-2902.92 604.5,-2902.92 604.5,-2909.08 604.5,-2909.08 604.5,-2912.17 601.42,-2915.25 598.33,-2915.25"/>
<text xml:space="preserve" text-anchor="start" x="482.5" y="-2902.7" font-family="Helvetica,sans-Serif" font-size="9.00" fill="orange">tableroUsuariosActivados.js</text>
</a>
</g>
</g>
<!-- routes/global.routes.js -->
<g id="node37" class="node">
<title>routes/global.routes.js</title>
<g id="a_node37"><a xlink:href="routes/global.routes.js" xlink:title="global.routes.js">
<path fill="#ffffcc" stroke="black" d="M324.33,-1083.25C324.33,-1083.25 258.42,-1083.25 258.42,-1083.25 255.33,-1083.25 252.25,-1080.17 252.25,-1077.08 252.25,-1077.08 252.25,-1070.92 252.25,-1070.92 252.25,-1067.83 255.33,-1064.75 258.42,-1064.75 258.42,-1064.75 324.33,-1064.75 324.33,-1064.75 327.42,-1064.75 330.5,-1067.83 330.5,-1070.92 330.5,-1070.92 330.5,-1077.08 330.5,-1077.08 330.5,-1080.17 327.42,-1083.25 324.33,-1083.25"/>
<text xml:space="preserve" text-anchor="start" x="260.25" y="-1070.7" font-family="Helvetica,sans-Serif" font-size="9.00">global.routes.js</text>
</a>
</g>
</g>
<!-- routes/global.routes.js&#45;&gt;controllers/login.controller.js -->
<g id="edge16" class="edge">
<title>routes/global.routes.js&#45;&gt;controllers/login.controller.js</title>
<path fill="none" stroke="#000000" stroke-width="2" stroke-opacity="0.200000" d="M304.92,-1064.27C345.08,-1033.1 470.68,-935.63 519.15,-898.02"/>
<polygon fill="#000000" fill-opacity="0.200000" stroke="#000000" stroke-width="2" stroke-opacity="0.200000" points="520.14,-899.91 523.59,-894.57 517.56,-896.59 520.14,-899.91"/>
</g>
<!-- routes/global.routes.js&#45;&gt;node_modules/express -->
<g id="edge19" class="edge">
<title>routes/global.routes.js&#45;&gt;node_modules/express</title>
<path fill="none" stroke="#000000" stroke-opacity="0.200000" d="M313.02,-1083.75C375.21,-1112.81 566.67,-1200.14 732.5,-1253 826.68,-1283.02 941.32,-1306.39 996.87,-1316.91"/>
<polygon fill="#000000" fill-opacity="0.200000" stroke="#000000" stroke-opacity="0.200000" points="996.22,-1318.93 1002.5,-1317.97 997,-1314.8 996.22,-1318.93"/>
</g>
<!-- utils/middlewares/rateLimiter.js -->
<g id="node38" class="node">
<title>utils/middlewares/rateLimiter.js</title>
<g id="a_node38"><a xlink:href="utils/middlewares/rateLimiter.js" xlink:title="rateLimiter.js">
<path fill="#ffffcc" stroke="black" d="M822.46,-656.25C822.46,-656.25 767.04,-656.25 767.04,-656.25 763.96,-656.25 760.88,-653.17 760.88,-650.08 760.88,-650.08 760.88,-643.92 760.88,-643.92 760.88,-640.83 763.96,-637.75 767.04,-637.75 767.04,-637.75 822.46,-637.75 822.46,-637.75 825.54,-637.75 828.62,-640.83 828.62,-643.92 828.62,-643.92 828.62,-650.08 828.62,-650.08 828.62,-653.17 825.54,-656.25 822.46,-656.25"/>
<text xml:space="preserve" text-anchor="start" x="768.88" y="-643.7" font-family="Helvetica,sans-Serif" font-size="9.00">rateLimiter.js</text>
</a>
</g>
</g>
<!-- routes/global.routes.js&#45;&gt;utils/middlewares/rateLimiter.js -->
<g id="edge17" class="edge">
<title>routes/global.routes.js&#45;&gt;utils/middlewares/rateLimiter.js</title>
<path fill="none" stroke="#000000" stroke-width="2" stroke-opacity="0.200000" d="M294.38,-1064.35C303.73,-1021.63 347.13,-847.6 450.5,-757 538.61,-679.77 681.46,-656.67 751.84,-649.83"/>
<polygon fill="#000000" fill-opacity="0.200000" stroke="#000000" stroke-width="2" stroke-opacity="0.200000" points="751.66,-651.95 757.44,-649.31 751.28,-647.77 751.66,-651.95"/>
</g>
<!-- routes/usuarios.routes.js -->
<g id="node39" class="node">
<title>routes/usuarios.routes.js</title>
<g id="a_node39"><a xlink:href="routes/usuarios.routes.js" xlink:title="usuarios.routes.js">
<path fill="#ffffcc" stroke="black" d="M577.33,-1083.25C577.33,-1083.25 501.67,-1083.25 501.67,-1083.25 498.58,-1083.25 495.5,-1080.17 495.5,-1077.08 495.5,-1077.08 495.5,-1070.92 495.5,-1070.92 495.5,-1067.83 498.58,-1064.75 501.67,-1064.75 501.67,-1064.75 577.33,-1064.75 577.33,-1064.75 580.42,-1064.75 583.5,-1067.83 583.5,-1070.92 583.5,-1070.92 583.5,-1077.08 583.5,-1077.08 583.5,-1080.17 580.42,-1083.25 577.33,-1083.25"/>
<text xml:space="preserve" text-anchor="start" x="503.5" y="-1070.7" font-family="Helvetica,sans-Serif" font-size="9.00">usuarios.routes.js</text>
</a>
</g>
</g>
<!-- routes/global.routes.js&#45;&gt;routes/usuarios.routes.js -->
<g id="edge18" class="edge">
<title>routes/global.routes.js&#45;&gt;routes/usuarios.routes.js</title>
<path fill="none" stroke="#000000" stroke-width="2" stroke-opacity="0.200000" d="M330.83,-1074C372.66,-1074 439.76,-1074 486.32,-1074"/>
<polygon fill="#000000" fill-opacity="0.200000" stroke="#000000" stroke-width="2" stroke-opacity="0.200000" points="486.32,-1076.1 492.32,-1074 486.32,-1071.9 486.32,-1076.1"/>
</g>
<!-- utils/middlewares/rateLimiter.js&#45;&gt;node_modules/express&#45;rate&#45;limit -->
<g id="edge30" class="edge">
<title>utils/middlewares/rateLimiter.js&#45;&gt;node_modules/express&#45;rate&#45;limit</title>
<path fill="none" stroke="#000000" stroke-opacity="0.200000" d="M829.12,-649.61C836.41,-651.58 843.56,-654.81 849,-660 994.79,-799.13 867.87,-925.58 977,-1095 985.26,-1107.83 998.13,-1119.08 1009.15,-1127.25"/>
<polygon fill="#000000" fill-opacity="0.200000" stroke="#000000" stroke-opacity="0.200000" points="1007.71,-1128.8 1013.81,-1130.58 1010.15,-1125.38 1007.71,-1128.8"/>
</g>
<!-- routes/usuarios.routes.js&#45;&gt;controllers/usuarios.controller.js -->
<g id="edge20" class="edge">
<title>routes/usuarios.routes.js&#45;&gt;controllers/usuarios.controller.js</title>
<path fill="none" stroke="#000000" stroke-width="2" stroke-opacity="0.200000" d="M522.11,-1064.41C474.05,-1036.62 345.81,-952.94 390.5,-874 411.31,-837.25 455.38,-815.97 490.22,-804.34"/>
<polygon fill="#000000" fill-opacity="0.200000" stroke="#000000" stroke-width="2" stroke-opacity="0.200000" points="490.44,-806.47 495.52,-802.65 489.17,-802.47 490.44,-806.47"/>
</g>
<!-- routes/usuarios.routes.js&#45;&gt;node_modules/express -->
<g id="edge21" class="edge">
<title>routes/usuarios.routes.js&#45;&gt;node_modules/express</title>
<path fill="none" stroke="#000000" stroke-opacity="0.200000" d="M559.4,-1083.61C635.22,-1122.16 917.44,-1265.65 1004.51,-1309.91"/>
<polygon fill="#000000" fill-opacity="0.200000" stroke="#000000" stroke-opacity="0.200000" points="1003.49,-1311.75 1009.79,-1312.6 1005.4,-1308.01 1003.49,-1311.75"/>
</g>
<!-- server.js -->
<g id="node40" class="node">
<title>server.js</title>
<g id="a_node40"><a xlink:href="server.js" xlink:title="server.js">
<path fill="#ffffcc" stroke="black" d="M74.96,-1279.25C74.96,-1279.25 33.29,-1279.25 33.29,-1279.25 30.21,-1279.25 27.12,-1276.17 27.12,-1273.08 27.12,-1273.08 27.12,-1266.92 27.12,-1266.92 27.12,-1263.83 30.21,-1260.75 33.29,-1260.75 33.29,-1260.75 74.96,-1260.75 74.96,-1260.75 78.04,-1260.75 81.12,-1263.83 81.12,-1266.92 81.12,-1266.92 81.12,-1273.08 81.12,-1273.08 81.12,-1276.17 78.04,-1279.25 74.96,-1279.25"/>
<text xml:space="preserve" text-anchor="start" x="37.25" y="-1266.7" font-family="Helvetica,sans-Serif" font-size="9.00">server.js</text>
</a>
</g>
</g>
<!-- server.js&#45;&gt;utils/middlewares/sessionManager.js -->
<g id="edge23" class="edge">
<title>server.js&#45;&gt;utils/middlewares/sessionManager.js</title>
<path fill="none" stroke="#000000" stroke-width="2" stroke-opacity="0.200000" d="M68.38,-1260.41C79.8,-1251.73 96.29,-1238.17 108.25,-1224 297.43,-999.98 218.83,-839.72 450.5,-660 537.14,-592.79 666.99,-568.84 739.62,-560.43"/>
<polygon fill="#000000" fill-opacity="0.200000" stroke="#000000" stroke-width="2" stroke-opacity="0.200000" points="739.45,-562.56 745.18,-559.81 738.98,-558.39 739.45,-562.56"/>
</g>
<!-- server.js&#45;&gt;node_modules/compression -->
<g id="edge25" class="edge">
<title>server.js&#45;&gt;node_modules/compression</title>
<path fill="none" stroke="#000000" stroke-opacity="0.200000" d="M67.47,-1279.68C78.58,-1288.62 95.15,-1302.53 108.25,-1316 174.77,-1384.35 164.9,-1429.08 244.25,-1482 486.95,-1643.87 865.34,-1616.05 989.37,-1601.52"/>
<polygon fill="#000000" fill-opacity="0.200000" stroke="#000000" stroke-opacity="0.200000" points="989.62,-1603.6 995.32,-1600.8 989.12,-1599.43 989.62,-1603.6"/>
</g>
<!-- server.js&#45;&gt;node_modules/cookie&#45;parser -->
<g id="edge26" class="edge">
<title>server.js&#45;&gt;node_modules/cookie&#45;parser</title>
<path fill="none" stroke="#000000" stroke-opacity="0.200000" d="M66.43,-1279.59C100.85,-1308.61 204.39,-1394.53 244.25,-1412 507.43,-1527.36 865.13,-1516.31 987.31,-1508.39"/>
<polygon fill="#000000" fill-opacity="0.200000" stroke="#000000" stroke-opacity="0.200000" points="987.31,-1510.5 993.16,-1508 987.03,-1506.31 987.31,-1510.5"/>
</g>
<!-- server.js&#45;&gt;node_modules/dotenv -->
<g id="edge27" class="edge">
<title>server.js&#45;&gt;node_modules/dotenv</title>
<path fill="none" stroke="#000000" stroke-opacity="0.200000" d="M73.29,-1279.66C106.29,-1296.71 178.73,-1331.86 244.25,-1348 528.62,-1418.05 886.42,-1417.12 996.49,-1414.92"/>
<polygon fill="#000000" fill-opacity="0.200000" stroke="#000000" stroke-opacity="0.200000" points="996.52,-1417.02 1002.47,-1414.79 996.43,-1412.82 996.52,-1417.02"/>
</g>
<!-- server.js&#45;&gt;node_modules/express -->
<g id="edge28" class="edge">
<title>server.js&#45;&gt;node_modules/express</title>
<path fill="none" stroke="#000000" stroke-opacity="0.200000" d="M81.55,-1272.87C172.12,-1282.54 478.47,-1313.89 732.5,-1324 784.24,-1326.06 797.22,-1324.14 849,-1324 900.41,-1323.86 960.02,-1323.49 996.43,-1323.24"/>
<polygon fill="#000000" fill-opacity="0.200000" stroke="#000000" stroke-opacity="0.200000" points="996.34,-1325.34 1002.32,-1323.2 996.31,-1321.14 996.34,-1325.34"/>
</g>
<!-- server.js&#45;&gt;path -->
<g id="edge29" class="edge">
<title>server.js&#45;&gt;path</title>
<path fill="none" stroke="#000000" stroke-dasharray="5,2" stroke-opacity="0.200000" d="M71.06,-1260.29C83.12,-1252.1 99.11,-1239.29 108.25,-1224 404.11,-729.06 -38.13,0 538.5,0 538.5,0 538.5,0 795.75,0 990.47,0 1186.57,-167.49 1241.74,-218.46"/>
<polygon fill="#000000" fill-opacity="0.200000" stroke="#000000" stroke-opacity="0.200000" points="1239.99,-219.7 1245.81,-222.25 1242.85,-216.63 1239.99,-219.7"/>
</g>
<!-- server.js&#45;&gt;routes/global.routes.js -->
<g id="edge22" class="edge">
<title>server.js&#45;&gt;routes/global.routes.js</title>
<path fill="none" stroke="#000000" stroke-width="2" stroke-opacity="0.200000" d="M66.79,-1260.28C104.9,-1228.53 225.91,-1127.71 272.16,-1089.18"/>
<polygon fill="#000000" fill-opacity="0.200000" stroke="#000000" stroke-width="2" stroke-opacity="0.200000" points="273.32,-1090.94 276.59,-1085.48 270.64,-1087.71 273.32,-1090.94"/>
</g>
<!-- utils/scripts/postgrestRunner.js -->
<g id="node41" class="node">
<title>utils/scripts/postgrestRunner.js</title>
<g id="a_node41"><a xlink:href="utils/scripts/postgrestRunner.js" xlink:title="postgrestRunner.js">
<path fill="#ffffcc" stroke="black" d="M1071.33,-565.25C1071.33,-565.25 991.17,-565.25 991.17,-565.25 988.08,-565.25 985,-562.17 985,-559.08 985,-559.08 985,-552.92 985,-552.92 985,-549.83 988.08,-546.75 991.17,-546.75 991.17,-546.75 1071.33,-546.75 1071.33,-546.75 1074.42,-546.75 1077.5,-549.83 1077.5,-552.92 1077.5,-552.92 1077.5,-559.08 1077.5,-559.08 1077.5,-562.17 1074.42,-565.25 1071.33,-565.25"/>
<text xml:space="preserve" text-anchor="start" x="993" y="-552.7" font-family="Helvetica,sans-Serif" font-size="9.00">postgrestRunner.js</text>
</a>
</g>
</g>
<!-- server.js&#45;&gt;utils/scripts/postgrestRunner.js -->
<g id="edge24" class="edge">
<title>server.js&#45;&gt;utils/scripts/postgrestRunner.js</title>
<path fill="none" stroke="#000000" stroke-width="2" stroke-opacity="0.200000" d="M70.27,-1260.44C82.22,-1252.16 98.44,-1239.16 108.25,-1224 222.47,-1047.52 135.72,-951.03 244.25,-771 392.93,-524.36 460.48,-439.56 732.5,-345 781.41,-328 801.95,-323.39 849,-345 938.5,-386.11 1000.43,-495.64 1021.92,-538.48"/>
<polygon fill="#000000" fill-opacity="0.200000" stroke="#000000" stroke-width="2" stroke-opacity="0.200000" points="1019.91,-539.16 1024.44,-543.62 1023.68,-537.31 1019.91,-539.16"/>
</g>
<!-- utils/scripts/postgrestRunner.js&#45;&gt;child_process -->
<g id="edge35" class="edge">
<title>utils/scripts/postgrestRunner.js&#45;&gt;child_process</title>
<path fill="none" stroke="#000000" stroke-dasharray="5,2" stroke-opacity="0.200000" d="M1077.73,-556C1117.58,-556 1175.07,-556 1214.12,-556"/>
<polygon fill="#000000" fill-opacity="0.200000" stroke="#000000" stroke-opacity="0.200000" points="1213.68,-558.1 1219.68,-556 1213.68,-553.9 1213.68,-558.1"/>
</g>
<!-- utils/scripts/postgrestRunner.js&#45;&gt;path -->
<g id="edge36" class="edge">
<title>utils/scripts/postgrestRunner.js&#45;&gt;path</title>
<path fill="none" stroke="#000000" stroke-dasharray="5,2" stroke-opacity="0.200000" d="M1038.98,-546.33C1070.83,-500.55 1206.65,-305.36 1246.17,-248.56"/>
<polygon fill="#000000" fill-opacity="0.200000" stroke="#000000" stroke-opacity="0.200000" points="1247.73,-250 1249.44,-243.87 1244.28,-247.6 1247.73,-250"/>
</g>
<!-- tailwind.config.js -->
<g id="node42" class="node">
<title>tailwind.config.js</title>
<g id="a_node42"><a xlink:href="tailwind.config.js" xlink:title="no&#45;orphans">
<path fill="#ccffcc" stroke="orange" d="M89.71,-1370.25C89.71,-1370.25 18.54,-1370.25 18.54,-1370.25 15.46,-1370.25 12.38,-1367.17 12.38,-1364.08 12.38,-1364.08 12.38,-1357.92 12.38,-1357.92 12.38,-1354.83 15.46,-1351.75 18.54,-1351.75 18.54,-1351.75 89.71,-1351.75 89.71,-1351.75 92.79,-1351.75 95.88,-1354.83 95.88,-1357.92 95.88,-1357.92 95.88,-1364.08 95.88,-1364.08 95.88,-1367.17 92.79,-1370.25 89.71,-1370.25"/>
<text xml:space="preserve" text-anchor="start" x="20.38" y="-1357.7" font-family="Helvetica,sans-Serif" font-size="9.00" fill="orange">tailwind.config.js</text>
</a>
</g>
</g>
</g>
</svg>
