<?xml version="1.0" encoding="UTF-8" standalone="no"?>
<!DOCTYPE svg PUBLIC "-//W3C//DTD SVG 1.1//EN"
 "http://www.w3.org/Graphics/SVG/1.1/DTD/svg11.dtd">
<!-- Generated by graphviz version 13.1.1 (20250719.2154)
 -->
<!-- Title: dependency&#45;cruiser output Pages: 1 -->
<svg width="1317pt" height="2628pt"
 viewBox="0.00 0.00 1317.00 2628.00" xmlns="http://www.w3.org/2000/svg" xmlns:xlink="http://www.w3.org/1999/xlink">
<g id="graph0" class="graph" transform="scale(1 1) rotate(0) translate(4 2624)">
<title>dependency&#45;cruiser output</title>
<polygon fill="white" stroke="none" points="-4,4 -4,-2624 1313.38,-2624 1313.38,4 -4,4"/>
<g id="clust1" class="cluster">
<title>cluster_controllers</title>
<path fill="#ffffff" stroke="black" stroke-width="2" d="M725.5,-720C725.5,-720 817.5,-720 817.5,-720 823.5,-720 829.5,-726 829.5,-732 829.5,-732 829.5,-852 829.5,-852 829.5,-858 823.5,-864 817.5,-864 817.5,-864 725.5,-864 725.5,-864 719.5,-864 713.5,-858 713.5,-852 713.5,-852 713.5,-732 713.5,-732 713.5,-726 719.5,-720 725.5,-720"/>
<text xml:space="preserve" text-anchor="middle" x="771.5" y="-851.45" font-family="Helvetica,sans-Serif" font-weight="bold" font-size="9.00">controllers</text>
</g>
<g id="clust2" class="cluster">
<title>cluster_node_modules</title>
<path fill="#ffffff" stroke="black" stroke-width="2" d="M1224.38,-922C1224.38,-922 1289.38,-922 1289.38,-922 1295.38,-922 1301.38,-928 1301.38,-934 1301.38,-934 1301.38,-1691 1301.38,-1691 1301.38,-1697 1295.38,-1703 1289.38,-1703 1289.38,-1703 1224.38,-1703 1224.38,-1703 1218.38,-1703 1212.38,-1697 1212.38,-1691 1212.38,-1691 1212.38,-934 1212.38,-934 1212.38,-928 1218.38,-922 1224.38,-922"/>
<text xml:space="preserve" text-anchor="middle" x="1256.88" y="-1690.45" font-family="Helvetica,sans-Serif" font-weight="bold" font-size="9.00">node_modules</text>
</g>
<g id="clust3" class="cluster">
<title>cluster_public</title>
<path fill="#ffffff" stroke="black" stroke-width="2" d="M694.5,-1670C694.5,-1670 1065.75,-1670 1065.75,-1670 1071.75,-1670 1077.75,-1676 1077.75,-1682 1077.75,-1682 1077.75,-2600 1077.75,-2600 1077.75,-2606 1071.75,-2612 1065.75,-2612 1065.75,-2612 694.5,-2612 694.5,-2612 688.5,-2612 682.5,-2606 682.5,-2600 682.5,-2600 682.5,-1682 682.5,-1682 682.5,-1676 688.5,-1670 694.5,-1670"/>
<text xml:space="preserve" text-anchor="middle" x="880.12" y="-2599.45" font-family="Helvetica,sans-Serif" font-weight="bold" font-size="9.00">public</text>
</g>
<g id="clust4" class="cluster">
<title>cluster_public/js</title>
<path fill="#ffffff" stroke="black" stroke-width="2" d="M702.5,-1678C702.5,-1678 1057.75,-1678 1057.75,-1678 1063.75,-1678 1069.75,-1684 1069.75,-1690 1069.75,-1690 1069.75,-2573 1069.75,-2573 1069.75,-2579 1063.75,-2585 1057.75,-2585 1057.75,-2585 702.5,-2585 702.5,-2585 696.5,-2585 690.5,-2579 690.5,-2573 690.5,-2573 690.5,-1690 690.5,-1690 690.5,-1684 696.5,-1678 702.5,-1678"/>
<text xml:space="preserve" text-anchor="middle" x="880.12" y="-2572.45" font-family="Helvetica,sans-Serif" font-weight="bold" font-size="9.00">js</text>
</g>
<g id="clust5" class="cluster">
<title>cluster_public/js/login</title>
<path fill="#ffffff" stroke="black" stroke-width="2" d="M748.5,-1686C748.5,-1686 794.5,-1686 794.5,-1686 800.5,-1686 806.5,-1692 806.5,-1698 806.5,-1698 806.5,-1727 806.5,-1727 806.5,-1733 800.5,-1739 794.5,-1739 794.5,-1739 748.5,-1739 748.5,-1739 742.5,-1739 736.5,-1733 736.5,-1727 736.5,-1727 736.5,-1698 736.5,-1698 736.5,-1692 742.5,-1686 748.5,-1686"/>
<text xml:space="preserve" text-anchor="middle" x="771.5" y="-1726.45" font-family="Helvetica,sans-Serif" font-weight="bold" font-size="9.00">login</text>
</g>
<g id="clust6" class="cluster">
<title>cluster_public/js/scripts</title>
<path fill="#ffffff" stroke="black" stroke-width="2" d="M730.38,-1777C730.38,-1777 1049.75,-1777 1049.75,-1777 1055.75,-1777 1061.75,-1783 1061.75,-1789 1061.75,-1789 1061.75,-2455 1061.75,-2455 1061.75,-2461 1055.75,-2467 1049.75,-2467 1049.75,-2467 730.38,-2467 730.38,-2467 724.38,-2467 718.38,-2461 718.38,-2455 718.38,-2455 718.38,-1789 718.38,-1789 718.38,-1783 724.38,-1777 730.38,-1777"/>
<text xml:space="preserve" text-anchor="middle" x="890.06" y="-2454.45" font-family="Helvetica,sans-Serif" font-weight="bold" font-size="9.00">scripts</text>
</g>
<g id="clust7" class="cluster">
<title>cluster_public/js/usuarios</title>
<path fill="#ffffff" stroke="black" stroke-width="2" d="M710.5,-2505C710.5,-2505 832.5,-2505 832.5,-2505 838.5,-2505 844.5,-2511 844.5,-2517 844.5,-2517 844.5,-2546 844.5,-2546 844.5,-2552 838.5,-2558 832.5,-2558 832.5,-2558 710.5,-2558 710.5,-2558 704.5,-2558 698.5,-2552 698.5,-2546 698.5,-2546 698.5,-2517 698.5,-2517 698.5,-2511 704.5,-2505 710.5,-2505"/>
<text xml:space="preserve" text-anchor="middle" x="771.5" y="-2545.45" font-family="Helvetica,sans-Serif" font-weight="bold" font-size="9.00">usuarios</text>
</g>
<g id="clust8" class="cluster">
<title>cluster_routes</title>
<path fill="#ffffff" stroke="black" stroke-width="2" d="M256.25,-929C256.25,-929 558.5,-929 558.5,-929 564.5,-929 570.5,-935 570.5,-941 570.5,-941 570.5,-970 570.5,-970 570.5,-976 564.5,-982 558.5,-982 558.5,-982 256.25,-982 256.25,-982 250.25,-982 244.25,-976 244.25,-970 244.25,-970 244.25,-941 244.25,-941 244.25,-935 250.25,-929 256.25,-929"/>
<text xml:space="preserve" text-anchor="middle" x="407.38" y="-969.45" font-family="Helvetica,sans-Serif" font-weight="bold" font-size="9.00">routes</text>
</g>
<g id="clust9" class="cluster">
<title>cluster_utils</title>
<path fill="#ffffff" stroke="black" stroke-width="2" d="M721.25,-239C721.25,-239 1077,-239 1077,-239 1083,-239 1089,-245 1089,-251 1089,-251 1089,-406 1089,-406 1089,-412 1083,-418 1077,-418 1077,-418 721.25,-418 721.25,-418 715.25,-418 709.25,-412 709.25,-406 709.25,-406 709.25,-251 709.25,-251 709.25,-245 715.25,-239 721.25,-239"/>
<text xml:space="preserve" text-anchor="middle" x="899.12" y="-405.45" font-family="Helvetica,sans-Serif" font-weight="bold" font-size="9.00">utils</text>
</g>
<g id="clust10" class="cluster">
<title>cluster_utils/middlewares</title>
<path fill="#ffffff" stroke="black" stroke-width="2" d="M729.25,-338C729.25,-338 813.75,-338 813.75,-338 819.75,-338 825.75,-344 825.75,-350 825.75,-350 825.75,-379 825.75,-379 825.75,-385 819.75,-391 813.75,-391 813.75,-391 729.25,-391 729.25,-391 723.25,-391 717.25,-385 717.25,-379 717.25,-379 717.25,-350 717.25,-350 717.25,-344 723.25,-338 729.25,-338"/>
<text xml:space="preserve" text-anchor="middle" x="771.5" y="-378.45" font-family="Helvetica,sans-Serif" font-weight="bold" font-size="9.00">middlewares</text>
</g>
<g id="clust11" class="cluster">
<title>cluster_utils/scripts</title>
<path fill="#ffffff" stroke="black" stroke-width="2" d="M984.5,-247C984.5,-247 1069,-247 1069,-247 1075,-247 1081,-253 1081,-259 1081,-259 1081,-379 1081,-379 1081,-385 1075,-391 1069,-391 1069,-391 984.5,-391 984.5,-391 978.5,-391 972.5,-385 972.5,-379 972.5,-379 972.5,-259 972.5,-259 972.5,-253 978.5,-247 984.5,-247"/>
<text xml:space="preserve" text-anchor="middle" x="1026.75" y="-378.45" font-family="Helvetica,sans-Serif" font-weight="bold" font-size="9.00">scripts</text>
</g>
<!-- .dependency&#45;cruiser.js -->
<g id="node1" class="node">
<title>.dependency&#45;cruiser.js</title>
<g id="a_node1"><a xlink:href=".dependency-cruiser.js" xlink:title=".dependency&#45;cruiser.js">
<path fill="#ccffcc" stroke="black" d="M102.08,-537.25C102.08,-537.25 6.17,-537.25 6.17,-537.25 3.08,-537.25 0,-534.17 0,-531.08 0,-531.08 0,-524.92 0,-524.92 0,-521.83 3.08,-518.75 6.17,-518.75 6.17,-518.75 102.08,-518.75 102.08,-518.75 105.17,-518.75 108.25,-521.83 108.25,-524.92 108.25,-524.92 108.25,-531.08 108.25,-531.08 108.25,-534.17 105.17,-537.25 102.08,-537.25"/>
<text xml:space="preserve" text-anchor="start" x="8" y="-524.7" font-family="Helvetica,sans-Serif" font-size="9.00">.dependency&#45;cruiser.js</text>
</a>
</g>
</g>
<!-- canvg -->
<g id="node2" class="node">
<title>canvg</title>
<g id="a_node2"><a xlink:title="canvg">
<path fill="#ffffcc" stroke="black" d="M1277.71,-1858.25C1277.71,-1858.25 1236.04,-1858.25 1236.04,-1858.25 1232.96,-1858.25 1229.88,-1855.17 1229.88,-1852.08 1229.88,-1852.08 1229.88,-1845.92 1229.88,-1845.92 1229.88,-1842.83 1232.96,-1839.75 1236.04,-1839.75 1236.04,-1839.75 1277.71,-1839.75 1277.71,-1839.75 1280.79,-1839.75 1283.88,-1842.83 1283.88,-1845.92 1283.88,-1845.92 1283.88,-1852.08 1283.88,-1852.08 1283.88,-1855.17 1280.79,-1858.25 1277.71,-1858.25"/>
<text xml:space="preserve" text-anchor="start" x="1244.5" y="-1845.7" font-family="Helvetica,sans-Serif" font-size="9.00">canvg</text>
</a>
</g>
</g>
<!-- child_process -->
<g id="node3" class="node">
<title>child_process</title>
<g id="a_node3"><a xlink:href="https://nodejs.org/api/child_process.html" xlink:title="child_process">
<path fill="#ffffcc" stroke="grey" d="M1287.21,-273.25C1287.21,-273.25 1226.54,-273.25 1226.54,-273.25 1223.46,-273.25 1220.38,-270.17 1220.38,-267.08 1220.38,-267.08 1220.38,-260.92 1220.38,-260.92 1220.38,-257.83 1223.46,-254.75 1226.54,-254.75 1226.54,-254.75 1287.21,-254.75 1287.21,-254.75 1290.29,-254.75 1293.38,-257.83 1293.38,-260.92 1293.38,-260.92 1293.38,-267.08 1293.38,-267.08 1293.38,-270.17 1290.29,-273.25 1287.21,-273.25"/>
<text xml:space="preserve" text-anchor="start" x="1228.38" y="-260.7" font-family="Helvetica,sans-Serif" font-size="9.00" fill="grey">child_process</text>
</a>
</g>
</g>
<!-- controllers/login.controller.js -->
<g id="node4" class="node">
<title>controllers/login.controller.js</title>
<g id="a_node4"><a xlink:href="controllers/login.controller.js" xlink:title="login.controller.js">
<path fill="#ffffcc" stroke="black" d="M807.83,-837.25C807.83,-837.25 735.17,-837.25 735.17,-837.25 732.08,-837.25 729,-834.17 729,-831.08 729,-831.08 729,-824.92 729,-824.92 729,-821.83 732.08,-818.75 735.17,-818.75 735.17,-818.75 807.83,-818.75 807.83,-818.75 810.92,-818.75 814,-821.83 814,-824.92 814,-824.92 814,-831.08 814,-831.08 814,-834.17 810.92,-837.25 807.83,-837.25"/>
<text xml:space="preserve" text-anchor="start" x="737" y="-824.7" font-family="Helvetica,sans-Serif" font-size="9.00">login.controller.js</text>
</a>
</g>
</g>
<!-- utils/scripts/postgrestHelper.js -->
<g id="node5" class="node">
<title>utils/scripts/postgrestHelper.js</title>
<g id="a_node5"><a xlink:href="utils/scripts/postgrestHelper.js" xlink:title="postgrestHelper.js">
<path fill="#ffffcc" stroke="black" d="M1065.33,-364.25C1065.33,-364.25 988.17,-364.25 988.17,-364.25 985.08,-364.25 982,-361.17 982,-358.08 982,-358.08 982,-351.92 982,-351.92 982,-348.83 985.08,-345.75 988.17,-345.75 988.17,-345.75 1065.33,-345.75 1065.33,-345.75 1068.42,-345.75 1071.5,-348.83 1071.5,-351.92 1071.5,-351.92 1071.5,-358.08 1071.5,-358.08 1071.5,-361.17 1068.42,-364.25 1065.33,-364.25"/>
<text xml:space="preserve" text-anchor="start" x="990" y="-351.7" font-family="Helvetica,sans-Serif" font-size="9.00">postgrestHelper.js</text>
</a>
</g>
</g>
<!-- controllers/login.controller.js&#45;&gt;utils/scripts/postgrestHelper.js -->
<g id="edge1" class="edge">
<title>controllers/login.controller.js&#45;&gt;utils/scripts/postgrestHelper.js</title>
<path fill="none" stroke="#000000" stroke-width="2" stroke-opacity="0.200000" d="M794.53,-818.33C810.24,-810.48 830.9,-798.09 844.5,-782 956.78,-649.19 1008.61,-436.6 1022.07,-373.33"/>
<polygon fill="#000000" fill-opacity="0.200000" stroke="#000000" stroke-width="2" stroke-opacity="0.200000" points="1024.13,-373.76 1023.29,-367.46 1020.02,-372.91 1024.13,-373.76"/>
</g>
<!-- node_modules/bcryptjs -->
<g id="node6" class="node">
<title>node_modules/bcryptjs</title>
<g id="a_node6"><a xlink:href="https://www.npmjs.com/package/bcryptjs" xlink:title="bcryptjs">
<polygon fill="#c40b0a" fill-opacity="0.101961" stroke="black" points="1283.88,-1130.25 1231.93,-1130.25 1229.88,-1128.19 1229.88,-1111.75 1281.82,-1111.75 1283.88,-1113.81 1283.88,-1130.25"/>
<polyline fill="none" stroke="black" points="1281.82,-1128.19 1229.88,-1128.19"/>
<polyline fill="none" stroke="black" points="1281.82,-1128.19 1281.82,-1111.75"/>
<polyline fill="none" stroke="black" points="1281.82,-1128.19 1283.88,-1130.25"/>
<text xml:space="preserve" text-anchor="start" x="1241.12" y="-1117.7" font-family="Helvetica,sans-Serif" font-size="9.00" fill="#c40b0a">bcryptjs</text>
</a>
</g>
</g>
<!-- controllers/login.controller.js&#45;&gt;node_modules/bcryptjs -->
<g id="edge2" class="edge">
<title>controllers/login.controller.js&#45;&gt;node_modules/bcryptjs</title>
<path fill="none" stroke="#000000" stroke-opacity="0.200000" d="M788.58,-837.75C860.43,-881.3 1152.06,-1058.07 1234.23,-1107.88"/>
<polygon fill="#000000" fill-opacity="0.200000" stroke="#000000" stroke-opacity="0.200000" points="1232.71,-1109.41 1238.93,-1110.73 1234.88,-1105.82 1232.71,-1109.41"/>
</g>
<!-- crypto -->
<g id="node7" class="node">
<title>crypto</title>
<g id="a_node7"><a xlink:href="https://nodejs.org/api/crypto.html" xlink:title="crypto">
<path fill="#ffffcc" stroke="grey" d="M1047.58,-746.25C1047.58,-746.25 1005.92,-746.25 1005.92,-746.25 1002.83,-746.25 999.75,-743.17 999.75,-740.08 999.75,-740.08 999.75,-733.92 999.75,-733.92 999.75,-730.83 1002.83,-727.75 1005.92,-727.75 1005.92,-727.75 1047.58,-727.75 1047.58,-727.75 1050.67,-727.75 1053.75,-730.83 1053.75,-733.92 1053.75,-733.92 1053.75,-740.08 1053.75,-740.08 1053.75,-743.17 1050.67,-746.25 1047.58,-746.25"/>
<text xml:space="preserve" text-anchor="start" x="1014.38" y="-733.7" font-family="Helvetica,sans-Serif" font-size="9.00" fill="grey">crypto</text>
</a>
</g>
</g>
<!-- controllers/login.controller.js&#45;&gt;crypto -->
<g id="edge3" class="edge">
<title>controllers/login.controller.js&#45;&gt;crypto</title>
<path fill="none" stroke="#000000" stroke-dasharray="5,2" stroke-opacity="0.200000" d="M799.6,-818.26C846.4,-801.45 942.19,-767.03 992.77,-748.85"/>
<polygon fill="#000000" fill-opacity="0.200000" stroke="#000000" stroke-opacity="0.200000" points="993.24,-750.91 998.18,-746.91 991.82,-746.96 993.24,-750.91"/>
</g>
<!-- node_modules/jsonwebtoken -->
<g id="node8" class="node">
<title>node_modules/jsonwebtoken</title>
<g id="a_node8"><a xlink:href="https://www.npmjs.com/package/jsonwebtoken" xlink:title="jsonwebtoken">
<polygon fill="#c40b0a" fill-opacity="0.101961" stroke="black" points="1293.38,-948.25 1222.43,-948.25 1220.38,-946.19 1220.38,-929.75 1291.32,-929.75 1293.38,-931.81 1293.38,-948.25"/>
<polyline fill="none" stroke="black" points="1291.32,-946.19 1220.38,-946.19"/>
<polyline fill="none" stroke="black" points="1291.32,-946.19 1291.32,-929.75"/>
<polyline fill="none" stroke="black" points="1291.32,-946.19 1293.38,-948.25"/>
<text xml:space="preserve" text-anchor="start" x="1228.38" y="-935.7" font-family="Helvetica,sans-Serif" font-size="9.00" fill="#c40b0a">jsonwebtoken</text>
</a>
</g>
</g>
<!-- controllers/login.controller.js&#45;&gt;node_modules/jsonwebtoken -->
<g id="edge4" class="edge">
<title>controllers/login.controller.js&#45;&gt;node_modules/jsonwebtoken</title>
<path fill="none" stroke="#000000" stroke-opacity="0.200000" d="M814.13,-837.56C905.1,-858.45 1120.82,-907.99 1212.96,-929.14"/>
<polygon fill="#000000" fill-opacity="0.200000" stroke="#000000" stroke-opacity="0.200000" points="1212.37,-931.16 1218.69,-930.46 1213.31,-927.07 1212.37,-931.16"/>
</g>
<!-- utils/scripts/postgrestHelper.js&#45;&gt;node_modules/jsonwebtoken -->
<g id="edge31" class="edge">
<title>utils/scripts/postgrestHelper.js&#45;&gt;node_modules/jsonwebtoken</title>
<path fill="none" stroke="#000000" stroke-opacity="0.200000" d="M1040.06,-364.63C1053.82,-376 1075.89,-396.16 1089,-418 1196.81,-597.59 1242.71,-854.4 1253.36,-922.11"/>
<polygon fill="#000000" fill-opacity="0.200000" stroke="#000000" stroke-opacity="0.200000" points="1251.27,-922.31 1254.26,-927.92 1255.42,-921.67 1251.27,-922.31"/>
</g>
<!-- controllers/usuarios.controller.js -->
<g id="node9" class="node">
<title>controllers/usuarios.controller.js</title>
<g id="a_node9"><a xlink:href="controllers/usuarios.controller.js" xlink:title="usuarios.controller.js">
<path fill="#ffffcc" stroke="black" d="M815.33,-746.25C815.33,-746.25 727.67,-746.25 727.67,-746.25 724.58,-746.25 721.5,-743.17 721.5,-740.08 721.5,-740.08 721.5,-733.92 721.5,-733.92 721.5,-730.83 724.58,-727.75 727.67,-727.75 727.67,-727.75 815.33,-727.75 815.33,-727.75 818.42,-727.75 821.5,-730.83 821.5,-733.92 821.5,-733.92 821.5,-740.08 821.5,-740.08 821.5,-743.17 818.42,-746.25 815.33,-746.25"/>
<text xml:space="preserve" text-anchor="start" x="729.5" y="-733.7" font-family="Helvetica,sans-Serif" font-size="9.00">usuarios.controller.js</text>
</a>
</g>
</g>
<!-- controllers/usuarios.controller.js&#45;&gt;utils/scripts/postgrestHelper.js -->
<g id="edge6" class="edge">
<title>controllers/usuarios.controller.js&#45;&gt;utils/scripts/postgrestHelper.js</title>
<path fill="none" stroke="#000000" stroke-width="2" stroke-opacity="0.200000" d="M778.76,-727.56C812.29,-676.98 970.72,-438.01 1014.51,-371.95"/>
<polygon fill="#000000" fill-opacity="0.200000" stroke="#000000" stroke-width="2" stroke-opacity="0.200000" points="1016.24,-373.14 1017.81,-366.98 1012.74,-370.82 1016.24,-373.14"/>
</g>
<!-- utils/IAM.json -->
<g id="node10" class="node">
<title>utils/IAM.json</title>
<g id="a_node10"><a xlink:href="utils/IAM.json" xlink:title="IAM.json">
<path fill="#ffee44" stroke="black" d="M792.33,-273.25C792.33,-273.25 750.67,-273.25 750.67,-273.25 747.58,-273.25 744.5,-270.17 744.5,-267.08 744.5,-267.08 744.5,-260.92 744.5,-260.92 744.5,-257.83 747.58,-254.75 750.67,-254.75 750.67,-254.75 792.33,-254.75 792.33,-254.75 795.42,-254.75 798.5,-257.83 798.5,-260.92 798.5,-260.92 798.5,-267.08 798.5,-267.08 798.5,-270.17 795.42,-273.25 792.33,-273.25"/>
<text xml:space="preserve" text-anchor="start" x="753.88" y="-260.7" font-family="Helvetica,sans-Serif" font-size="9.00">IAM.json</text>
</a>
</g>
</g>
<!-- controllers/usuarios.controller.js&#45;&gt;utils/IAM.json -->
<g id="edge5" class="edge">
<title>controllers/usuarios.controller.js&#45;&gt;utils/IAM.json</title>
<path fill="none" stroke="#000000" stroke-width="2" stroke-opacity="0.200000" d="M743.72,-727.35C709.02,-713.61 651.2,-684.76 626.5,-638 567.97,-527.17 566.44,-466.01 626.5,-356 649.51,-313.85 700.98,-288.32 735.97,-275.18"/>
<polygon fill="#000000" fill-opacity="0.200000" stroke="#000000" stroke-width="2" stroke-opacity="0.200000" points="736.28,-277.3 741.2,-273.29 734.85,-273.35 736.28,-277.3"/>
</g>
<!-- dompurify -->
<g id="node11" class="node">
<title>dompurify</title>
<g id="a_node11"><a xlink:title="dompurify">
<path fill="#ffffcc" stroke="black" d="M1278.96,-1767.25C1278.96,-1767.25 1234.79,-1767.25 1234.79,-1767.25 1231.71,-1767.25 1228.62,-1764.17 1228.62,-1761.08 1228.62,-1761.08 1228.62,-1754.92 1228.62,-1754.92 1228.62,-1751.83 1231.71,-1748.75 1234.79,-1748.75 1234.79,-1748.75 1278.96,-1748.75 1278.96,-1748.75 1282.04,-1748.75 1285.12,-1751.83 1285.12,-1754.92 1285.12,-1754.92 1285.12,-1761.08 1285.12,-1761.08 1285.12,-1764.17 1282.04,-1767.25 1278.96,-1767.25"/>
<text xml:space="preserve" text-anchor="start" x="1236.62" y="-1754.7" font-family="Helvetica,sans-Serif" font-size="9.00">dompurify</text>
</a>
</g>
</g>
<!-- html2canvas -->
<g id="node12" class="node">
<title>html2canvas</title>
<g id="a_node12"><a xlink:title="html2canvas">
<path fill="#ffffcc" stroke="black" d="M1284.58,-2040.25C1284.58,-2040.25 1229.17,-2040.25 1229.17,-2040.25 1226.08,-2040.25 1223,-2037.17 1223,-2034.08 1223,-2034.08 1223,-2027.92 1223,-2027.92 1223,-2024.83 1226.08,-2021.75 1229.17,-2021.75 1229.17,-2021.75 1284.58,-2021.75 1284.58,-2021.75 1287.67,-2021.75 1290.75,-2024.83 1290.75,-2027.92 1290.75,-2027.92 1290.75,-2034.08 1290.75,-2034.08 1290.75,-2037.17 1287.67,-2040.25 1284.58,-2040.25"/>
<text xml:space="preserve" text-anchor="start" x="1231" y="-2027.7" font-family="Helvetica,sans-Serif" font-size="9.00">html2canvas</text>
</a>
</g>
</g>
<!-- node_modules/canvg -->
<g id="node13" class="node">
<title>node_modules/canvg</title>
<g id="a_node13"><a xlink:href="https://www.npmjs.com/package/canvg" xlink:title="canvg">
<polygon fill="#c40b0a" fill-opacity="0.101961" stroke="black" points="1283.88,-1494.25 1231.93,-1494.25 1229.88,-1492.19 1229.88,-1475.75 1281.82,-1475.75 1283.88,-1477.81 1283.88,-1494.25"/>
<polyline fill="none" stroke="black" points="1281.82,-1492.19 1229.88,-1492.19"/>
<polyline fill="none" stroke="black" points="1281.82,-1492.19 1281.82,-1475.75"/>
<polyline fill="none" stroke="black" points="1281.82,-1492.19 1283.88,-1494.25"/>
<text xml:space="preserve" text-anchor="start" x="1244.5" y="-1481.7" font-family="Helvetica,sans-Serif" font-size="9.00" fill="#c40b0a">canvg</text>
</a>
</g>
</g>
<!-- node_modules/cookie&#45;parser -->
<g id="node14" class="node">
<title>node_modules/cookie&#45;parser</title>
<g id="a_node14"><a xlink:href="https://www.npmjs.com/package/cookie-parser" xlink:title="cookie&#45;parser">
<polygon fill="#c40b0a" fill-opacity="0.101961" stroke="black" points="1293,-1039.25 1222.81,-1039.25 1220.75,-1037.19 1220.75,-1020.75 1290.94,-1020.75 1293,-1022.81 1293,-1039.25"/>
<polyline fill="none" stroke="black" points="1290.94,-1037.19 1220.75,-1037.19"/>
<polyline fill="none" stroke="black" points="1290.94,-1037.19 1290.94,-1020.75"/>
<polyline fill="none" stroke="black" points="1290.94,-1037.19 1293,-1039.25"/>
<text xml:space="preserve" text-anchor="start" x="1228.75" y="-1026.7" font-family="Helvetica,sans-Serif" font-size="9.00" fill="#c40b0a">cookie&#45;parser</text>
</a>
</g>
</g>
<!-- node_modules/dompurify -->
<g id="node15" class="node">
<title>node_modules/dompurify</title>
<g id="a_node15"><a xlink:href="https://www.npmjs.com/package/dompurify" xlink:title="dompurify">
<polygon fill="#c40b0a" fill-opacity="0.101961" stroke="black" points="1285.12,-1585.25 1230.68,-1585.25 1228.62,-1583.19 1228.62,-1566.75 1283.07,-1566.75 1285.12,-1568.81 1285.12,-1585.25"/>
<polyline fill="none" stroke="black" points="1283.07,-1583.19 1228.62,-1583.19"/>
<polyline fill="none" stroke="black" points="1283.07,-1583.19 1283.07,-1566.75"/>
<polyline fill="none" stroke="black" points="1283.07,-1583.19 1285.12,-1585.25"/>
<text xml:space="preserve" text-anchor="start" x="1236.62" y="-1572.7" font-family="Helvetica,sans-Serif" font-size="9.00" fill="#c40b0a">dompurify</text>
</a>
</g>
</g>
<!-- node_modules/dotenv -->
<g id="node16" class="node">
<title>node_modules/dotenv</title>
<g id="a_node16"><a xlink:href="https://www.npmjs.com/package/dotenv" xlink:title="dotenv">
<polygon fill="#c40b0a" fill-opacity="0.101961" stroke="black" points="1283.88,-1312.25 1231.93,-1312.25 1229.88,-1310.19 1229.88,-1293.75 1281.82,-1293.75 1283.88,-1295.81 1283.88,-1312.25"/>
<polyline fill="none" stroke="black" points="1281.82,-1310.19 1229.88,-1310.19"/>
<polyline fill="none" stroke="black" points="1281.82,-1310.19 1281.82,-1293.75"/>
<polyline fill="none" stroke="black" points="1281.82,-1310.19 1283.88,-1312.25"/>
<text xml:space="preserve" text-anchor="start" x="1243" y="-1299.7" font-family="Helvetica,sans-Serif" font-size="9.00" fill="#c40b0a">dotenv</text>
</a>
</g>
</g>
<!-- node_modules/express -->
<g id="node17" class="node">
<title>node_modules/express</title>
<g id="a_node17"><a xlink:href="https://www.npmjs.com/package/express" xlink:title="express">
<polygon fill="#c40b0a" fill-opacity="0.101961" stroke="black" points="1283.88,-1221.25 1231.93,-1221.25 1229.88,-1219.19 1229.88,-1202.75 1281.82,-1202.75 1283.88,-1204.81 1283.88,-1221.25"/>
<polyline fill="none" stroke="black" points="1281.82,-1219.19 1229.88,-1219.19"/>
<polyline fill="none" stroke="black" points="1281.82,-1219.19 1281.82,-1202.75"/>
<polyline fill="none" stroke="black" points="1281.82,-1219.19 1283.88,-1221.25"/>
<text xml:space="preserve" text-anchor="start" x="1240.75" y="-1208.7" font-family="Helvetica,sans-Serif" font-size="9.00" fill="#c40b0a">express</text>
</a>
</g>
</g>
<!-- node_modules/html2canvas -->
<g id="node18" class="node">
<title>node_modules/html2canvas</title>
<g id="a_node18"><a xlink:href="https://www.npmjs.com/package/html2canvas" xlink:title="html2canvas">
<polygon fill="#c40b0a" fill-opacity="0.101961" stroke="black" points="1290.75,-1676.25 1225.06,-1676.25 1223,-1674.19 1223,-1657.75 1288.69,-1657.75 1290.75,-1659.81 1290.75,-1676.25"/>
<polyline fill="none" stroke="black" points="1288.69,-1674.19 1223,-1674.19"/>
<polyline fill="none" stroke="black" points="1288.69,-1674.19 1288.69,-1657.75"/>
<polyline fill="none" stroke="black" points="1288.69,-1674.19 1290.75,-1676.25"/>
<text xml:space="preserve" text-anchor="start" x="1231" y="-1663.7" font-family="Helvetica,sans-Serif" font-size="9.00" fill="#c40b0a">html2canvas</text>
</a>
</g>
</g>
<!-- node_modules/jspdf -->
<g id="node19" class="node">
<title>node_modules/jspdf</title>
<g id="a_node19"><a xlink:href="https://www.npmjs.com/package/jspdf" xlink:title="jspdf">
<polygon fill="#c40b0a" fill-opacity="0.101961" stroke="black" points="1283.88,-1403.25 1231.93,-1403.25 1229.88,-1401.19 1229.88,-1384.75 1281.82,-1384.75 1283.88,-1386.81 1283.88,-1403.25"/>
<polyline fill="none" stroke="black" points="1281.82,-1401.19 1229.88,-1401.19"/>
<polyline fill="none" stroke="black" points="1281.82,-1401.19 1281.82,-1384.75"/>
<polyline fill="none" stroke="black" points="1281.82,-1401.19 1283.88,-1403.25"/>
<text xml:space="preserve" text-anchor="start" x="1247.12" y="-1390.7" font-family="Helvetica,sans-Serif" font-size="9.00" fill="#c40b0a">jspdf</text>
</a>
</g>
</g>
<!-- path -->
<g id="node20" class="node">
<title>path</title>
<g id="a_node20"><a xlink:href="https://nodejs.org/api/path.html" xlink:title="path">
<path fill="#ffffcc" stroke="grey" d="M1277.71,-96.25C1277.71,-96.25 1236.04,-96.25 1236.04,-96.25 1232.96,-96.25 1229.88,-93.17 1229.88,-90.08 1229.88,-90.08 1229.88,-83.92 1229.88,-83.92 1229.88,-80.83 1232.96,-77.75 1236.04,-77.75 1236.04,-77.75 1277.71,-77.75 1277.71,-77.75 1280.79,-77.75 1283.88,-80.83 1283.88,-83.92 1283.88,-83.92 1283.88,-90.08 1283.88,-90.08 1283.88,-93.17 1280.79,-96.25 1277.71,-96.25"/>
<text xml:space="preserve" text-anchor="start" x="1247.88" y="-83.7" font-family="Helvetica,sans-Serif" font-size="9.00" fill="grey">path</text>
</a>
</g>
</g>
<!-- public/js/login/login.js -->
<g id="node21" class="node">
<title>public/js/login/login.js</title>
<g id="a_node21"><a xlink:href="public/js/login/login.js" xlink:title="no&#45;orphans">
<path fill="#ccffcc" stroke="orange" d="M792.33,-1712.25C792.33,-1712.25 750.67,-1712.25 750.67,-1712.25 747.58,-1712.25 744.5,-1709.17 744.5,-1706.08 744.5,-1706.08 744.5,-1699.92 744.5,-1699.92 744.5,-1696.83 747.58,-1693.75 750.67,-1693.75 750.67,-1693.75 792.33,-1693.75 792.33,-1693.75 795.42,-1693.75 798.5,-1696.83 798.5,-1699.92 798.5,-1699.92 798.5,-1706.08 798.5,-1706.08 798.5,-1709.17 795.42,-1712.25 792.33,-1712.25"/>
<text xml:space="preserve" text-anchor="start" x="756.88" y="-1699.7" font-family="Helvetica,sans-Serif" font-size="9.00" fill="orange">login.js</text>
</a>
</g>
</g>
<!-- public/js/scripts/alpine.js -->
<g id="node22" class="node">
<title>public/js/scripts/alpine.js</title>
<g id="a_node22"><a xlink:href="public/js/scripts/alpine.js" xlink:title="no&#45;orphans">
<path fill="#ccffcc" stroke="orange" d="M792.33,-1803.25C792.33,-1803.25 750.67,-1803.25 750.67,-1803.25 747.58,-1803.25 744.5,-1800.17 744.5,-1797.08 744.5,-1797.08 744.5,-1790.92 744.5,-1790.92 744.5,-1787.83 747.58,-1784.75 750.67,-1784.75 750.67,-1784.75 792.33,-1784.75 792.33,-1784.75 795.42,-1784.75 798.5,-1787.83 798.5,-1790.92 798.5,-1790.92 798.5,-1797.08 798.5,-1797.08 798.5,-1800.17 795.42,-1803.25 792.33,-1803.25"/>
<text xml:space="preserve" text-anchor="start" x="754.25" y="-1790.7" font-family="Helvetica,sans-Serif" font-size="9.00" fill="orange">alpine.js</text>
</a>
</g>
</g>
<!-- public/js/scripts/bootstrap.js -->
<g id="node23" class="node">
<title>public/js/scripts/bootstrap.js</title>
<g id="a_node23"><a xlink:href="public/js/scripts/bootstrap.js" xlink:title="no&#45;orphans">
<path fill="#ccffcc" stroke="orange" d="M796.96,-1894.25C796.96,-1894.25 746.04,-1894.25 746.04,-1894.25 742.96,-1894.25 739.88,-1891.17 739.88,-1888.08 739.88,-1888.08 739.88,-1881.92 739.88,-1881.92 739.88,-1878.83 742.96,-1875.75 746.04,-1875.75 746.04,-1875.75 796.96,-1875.75 796.96,-1875.75 800.04,-1875.75 803.12,-1878.83 803.12,-1881.92 803.12,-1881.92 803.12,-1888.08 803.12,-1888.08 803.12,-1891.17 800.04,-1894.25 796.96,-1894.25"/>
<text xml:space="preserve" text-anchor="start" x="747.88" y="-1881.7" font-family="Helvetica,sans-Serif" font-size="9.00" fill="orange">bootstrap.js</text>
</a>
</g>
</g>
<!-- public/js/scripts/flatpickr.js -->
<g id="node24" class="node">
<title>public/js/scripts/flatpickr.js</title>
<g id="a_node24"><a xlink:href="public/js/scripts/flatpickr.js" xlink:title="no&#45;orphans">
<path fill="#ccffcc" stroke="orange" d="M793.21,-1985.25C793.21,-1985.25 749.79,-1985.25 749.79,-1985.25 746.71,-1985.25 743.62,-1982.17 743.62,-1979.08 743.62,-1979.08 743.62,-1972.92 743.62,-1972.92 743.62,-1969.83 746.71,-1966.75 749.79,-1966.75 749.79,-1966.75 793.21,-1966.75 793.21,-1966.75 796.29,-1966.75 799.38,-1969.83 799.38,-1972.92 799.38,-1972.92 799.38,-1979.08 799.38,-1979.08 799.38,-1982.17 796.29,-1985.25 793.21,-1985.25"/>
<text xml:space="preserve" text-anchor="start" x="751.62" y="-1972.7" font-family="Helvetica,sans-Serif" font-size="9.00" fill="orange">flatpickr.js</text>
</a>
</g>
</g>
<!-- public/js/scripts/flatpickr.spanish.js -->
<g id="node25" class="node">
<title>public/js/scripts/flatpickr.spanish.js</title>
<g id="a_node25"><a xlink:href="public/js/scripts/flatpickr.spanish.js" xlink:title="no&#45;orphans">
<path fill="#ccffcc" stroke="orange" d="M810.46,-2076.25C810.46,-2076.25 732.54,-2076.25 732.54,-2076.25 729.46,-2076.25 726.38,-2073.17 726.38,-2070.08 726.38,-2070.08 726.38,-2063.92 726.38,-2063.92 726.38,-2060.83 729.46,-2057.75 732.54,-2057.75 732.54,-2057.75 810.46,-2057.75 810.46,-2057.75 813.54,-2057.75 816.62,-2060.83 816.62,-2063.92 816.62,-2063.92 816.62,-2070.08 816.62,-2070.08 816.62,-2073.17 813.54,-2076.25 810.46,-2076.25"/>
<text xml:space="preserve" text-anchor="start" x="734.38" y="-2063.7" font-family="Helvetica,sans-Serif" font-size="9.00" fill="orange">flatpickr.spanish.js</text>
</a>
</g>
</g>
<!-- public/js/scripts/jspdf.autotable.js -->
<g id="node26" class="node">
<title>public/js/scripts/jspdf.autotable.js</title>
<g id="a_node26"><a xlink:href="public/js/scripts/jspdf.autotable.js" xlink:title="jspdf.autotable.js">
<path fill="#ffffcc" stroke="black" d="M807.83,-2167.25C807.83,-2167.25 735.17,-2167.25 735.17,-2167.25 732.08,-2167.25 729,-2164.17 729,-2161.08 729,-2161.08 729,-2154.92 729,-2154.92 729,-2151.83 732.08,-2148.75 735.17,-2148.75 735.17,-2148.75 807.83,-2148.75 807.83,-2148.75 810.92,-2148.75 814,-2151.83 814,-2154.92 814,-2154.92 814,-2161.08 814,-2161.08 814,-2164.17 810.92,-2167.25 807.83,-2167.25"/>
<text xml:space="preserve" text-anchor="start" x="737" y="-2154.7" font-family="Helvetica,sans-Serif" font-size="9.00">jspdf.autotable.js</text>
</a>
</g>
</g>
<!-- public/js/scripts/jspdf.autotable.js&#45;&gt;node_modules/jspdf -->
<g id="edge8" class="edge">
<title>public/js/scripts/jspdf.autotable.js&#45;&gt;node_modules/jspdf</title>
<path fill="none" stroke="#000000" stroke-opacity="0.200000" d="M794.56,-2148.36C810.29,-2140.52 830.96,-2128.14 844.5,-2112 939.78,-1998.44 900.68,-1933.68 972.5,-1804 1015.82,-1725.79 1039.61,-1714.53 1089,-1640 1146.69,-1552.94 1148.75,-1522.82 1212.38,-1440 1220.92,-1428.88 1231.74,-1417.43 1240.46,-1408.73"/>
<polygon fill="#000000" fill-opacity="0.200000" stroke="#000000" stroke-opacity="0.200000" points="1241.69,-1410.46 1244.49,-1404.76 1238.74,-1407.47 1241.69,-1410.46"/>
</g>
<!-- public/js/scripts/jspdf.js -->
<g id="node27" class="node">
<title>public/js/scripts/jspdf.js</title>
<g id="a_node27"><a xlink:href="public/js/scripts/jspdf.js" xlink:title="jspdf.js">
<path fill="#ffffcc" stroke="black" d="M1047.58,-1858.25C1047.58,-1858.25 1005.92,-1858.25 1005.92,-1858.25 1002.83,-1858.25 999.75,-1855.17 999.75,-1852.08 999.75,-1852.08 999.75,-1845.92 999.75,-1845.92 999.75,-1842.83 1002.83,-1839.75 1005.92,-1839.75 1005.92,-1839.75 1047.58,-1839.75 1047.58,-1839.75 1050.67,-1839.75 1053.75,-1842.83 1053.75,-1845.92 1053.75,-1845.92 1053.75,-1852.08 1053.75,-1852.08 1053.75,-1855.17 1050.67,-1858.25 1047.58,-1858.25"/>
<text xml:space="preserve" text-anchor="start" x="1012.5" y="-1845.7" font-family="Helvetica,sans-Serif" font-size="9.00">jspdf.js</text>
</a>
</g>
</g>
<!-- public/js/scripts/jspdf.autotable.js&#45;&gt;public/js/scripts/jspdf.js -->
<g id="edge7" class="edge">
<title>public/js/scripts/jspdf.autotable.js&#45;&gt;public/js/scripts/jspdf.js</title>
<path fill="none" stroke="#000000" stroke-width="2" stroke-opacity="0.200000" d="M792.01,-2148.32C807.4,-2140.07 828.81,-2127.15 844.5,-2112 926.4,-2032.91 993.51,-1911.52 1016.88,-1866.55"/>
<polygon fill="#000000" fill-opacity="0.200000" stroke="#000000" stroke-width="2" stroke-opacity="0.200000" points="1018.7,-1867.6 1019.58,-1861.3 1014.97,-1865.68 1018.7,-1867.6"/>
</g>
<!-- public/js/scripts/jspdf.js&#45;&gt;canvg -->
<g id="edge9" class="edge">
<title>public/js/scripts/jspdf.js&#45;&gt;canvg</title>
<g id="a_edge9"><a xlink:title="not&#45;to&#45;unresolvable">
<path fill="none" stroke="red" stroke-width="2" d="M1053.92,-1849C1094.98,-1849 1174.59,-1849 1220.64,-1849"/>
<polygon fill="red" stroke="red" stroke-width="2" points="1220.63,-1851.1 1226.63,-1849 1220.63,-1846.9 1220.63,-1851.1"/>
</a>
</g>
<text xml:space="preserve" text-anchor="middle" x="1102.16" y="-1840.45" font-family="Helvetica,sans-Serif" font-size="9.00" fill="red">not&#45;to&#45;unresolvable</text>
</g>
<!-- public/js/scripts/jspdf.js&#45;&gt;dompurify -->
<g id="edge11" class="edge">
<title>public/js/scripts/jspdf.js&#45;&gt;dompurify</title>
<g id="a_edge11"><a xlink:title="not&#45;to&#45;unresolvable">
<path fill="none" stroke="red" stroke-width="2" d="M1052.16,-1839.26C1093.5,-1822.77 1177.27,-1789.36 1223.47,-1770.93"/>
<polygon fill="red" stroke="red" stroke-width="2" points="1224.03,-1772.96 1228.83,-1768.79 1222.47,-1769.06 1224.03,-1772.96"/>
</a>
</g>
<text xml:space="preserve" text-anchor="middle" x="1101.85" y="-1795.04" font-family="Helvetica,sans-Serif" font-size="9.00" fill="red">not&#45;to&#45;unresolvable</text>
</g>
<!-- public/js/scripts/jspdf.js&#45;&gt;html2canvas -->
<g id="edge13" class="edge">
<title>public/js/scripts/jspdf.js&#45;&gt;html2canvas</title>
<g id="a_edge13"><a xlink:title="not&#45;to&#45;unresolvable">
<path fill="none" stroke="red" stroke-width="2" d="M1039.69,-1858.53C1076.95,-1888.25 1191.25,-1979.44 1236.83,-2015.8"/>
<polygon fill="red" stroke="red" stroke-width="2" points="1235.41,-2017.36 1241.41,-2019.46 1238.03,-2014.07 1235.41,-2017.36"/>
</a>
</g>
<text xml:space="preserve" text-anchor="middle" x="1102.24" y="-1931.59" font-family="Helvetica,sans-Serif" font-size="9.00" fill="red">not&#45;to&#45;unresolvable</text>
</g>
<!-- public/js/scripts/jspdf.js&#45;&gt;node_modules/canvg -->
<g id="edge10" class="edge">
<title>public/js/scripts/jspdf.js&#45;&gt;node_modules/canvg</title>
<path fill="none" stroke="#000000" stroke-opacity="0.200000" d="M1038.81,-1839.64C1051.99,-1828.05 1074.12,-1807.24 1089,-1786 1161.22,-1682.88 1140.87,-1634.62 1212.38,-1531 1220.34,-1519.46 1231.16,-1508 1240.02,-1499.41"/>
<polygon fill="#000000" fill-opacity="0.200000" stroke="#000000" stroke-opacity="0.200000" points="1241.24,-1501.15 1244.14,-1495.5 1238.35,-1498.1 1241.24,-1501.15"/>
</g>
<!-- public/js/scripts/jspdf.js&#45;&gt;node_modules/dompurify -->
<g id="edge12" class="edge">
<title>public/js/scripts/jspdf.js&#45;&gt;node_modules/dompurify</title>
<path fill="none" stroke="#000000" stroke-opacity="0.200000" d="M1037.69,-1839.54C1050.15,-1827.52 1071.93,-1805.93 1089,-1786 1148.33,-1716.72 1153.53,-1691.69 1212.38,-1622 1221.54,-1611.15 1232.53,-1599.54 1241.17,-1590.69"/>
<polygon fill="#000000" fill-opacity="0.200000" stroke="#000000" stroke-opacity="0.200000" points="1242.44,-1592.4 1245.15,-1586.65 1239.44,-1589.46 1242.44,-1592.4"/>
</g>
<!-- public/js/scripts/jspdf.js&#45;&gt;node_modules/html2canvas -->
<g id="edge14" class="edge">
<title>public/js/scripts/jspdf.js&#45;&gt;node_modules/html2canvas</title>
<path fill="none" stroke="#000000" stroke-opacity="0.200000" d="M1039.69,-1839.47C1077.26,-1809.5 1193.14,-1717.05 1237.94,-1681.31"/>
<polygon fill="#000000" fill-opacity="0.200000" stroke="#000000" stroke-opacity="0.200000" points="1239.21,-1682.98 1242.59,-1677.6 1236.59,-1679.7 1239.21,-1682.98"/>
</g>
<!-- worker_threads -->
<g id="node28" class="node">
<title>worker_threads</title>
<g id="a_node28"><a xlink:href="https://nodejs.org/api/worker_threads.html" xlink:title="worker_threads">
<path fill="#ffffcc" stroke="grey" d="M1290.58,-1949.25C1290.58,-1949.25 1223.17,-1949.25 1223.17,-1949.25 1220.08,-1949.25 1217,-1946.17 1217,-1943.08 1217,-1943.08 1217,-1936.92 1217,-1936.92 1217,-1933.83 1220.08,-1930.75 1223.17,-1930.75 1223.17,-1930.75 1290.58,-1930.75 1290.58,-1930.75 1293.67,-1930.75 1296.75,-1933.83 1296.75,-1936.92 1296.75,-1936.92 1296.75,-1943.08 1296.75,-1943.08 1296.75,-1946.17 1293.67,-1949.25 1290.58,-1949.25"/>
<text xml:space="preserve" text-anchor="start" x="1225" y="-1936.7" font-family="Helvetica,sans-Serif" font-size="9.00" fill="grey">worker_threads</text>
</a>
</g>
</g>
<!-- public/js/scripts/jspdf.js&#45;&gt;worker_threads -->
<g id="edge15" class="edge">
<title>public/js/scripts/jspdf.js&#45;&gt;worker_threads</title>
<path fill="none" stroke="#000000" stroke-dasharray="5,2" stroke-opacity="0.200000" d="M1052.16,-1858.74C1093.93,-1875.4 1179.01,-1909.34 1224.89,-1927.64"/>
<polygon fill="#000000" fill-opacity="0.200000" stroke="#000000" stroke-opacity="0.200000" points="1223.88,-1929.5 1230.23,-1929.77 1225.44,-1925.6 1223.88,-1929.5"/>
</g>
<!-- public/js/scripts/luxon.js -->
<g id="node29" class="node">
<title>public/js/scripts/luxon.js</title>
<g id="a_node29"><a xlink:href="public/js/scripts/luxon.js" xlink:title="no&#45;orphans">
<path fill="#ccffcc" stroke="orange" d="M792.33,-2258.25C792.33,-2258.25 750.67,-2258.25 750.67,-2258.25 747.58,-2258.25 744.5,-2255.17 744.5,-2252.08 744.5,-2252.08 744.5,-2245.92 744.5,-2245.92 744.5,-2242.83 747.58,-2239.75 750.67,-2239.75 750.67,-2239.75 792.33,-2239.75 792.33,-2239.75 795.42,-2239.75 798.5,-2242.83 798.5,-2245.92 798.5,-2245.92 798.5,-2252.08 798.5,-2252.08 798.5,-2255.17 795.42,-2258.25 792.33,-2258.25"/>
<text xml:space="preserve" text-anchor="start" x="755.75" y="-2245.7" font-family="Helvetica,sans-Serif" font-size="9.00" fill="orange">luxon.js</text>
</a>
</g>
</g>
<!-- public/js/scripts/tabulator.js -->
<g id="node30" class="node">
<title>public/js/scripts/tabulator.js</title>
<g id="a_node30"><a xlink:href="public/js/scripts/tabulator.js" xlink:title="no&#45;orphans">
<path fill="#ccffcc" stroke="orange" d="M795.46,-2349.25C795.46,-2349.25 747.54,-2349.25 747.54,-2349.25 744.46,-2349.25 741.38,-2346.17 741.38,-2343.08 741.38,-2343.08 741.38,-2336.92 741.38,-2336.92 741.38,-2333.83 744.46,-2330.75 747.54,-2330.75 747.54,-2330.75 795.46,-2330.75 795.46,-2330.75 798.54,-2330.75 801.62,-2333.83 801.62,-2336.92 801.62,-2336.92 801.62,-2343.08 801.62,-2343.08 801.62,-2346.17 798.54,-2349.25 795.46,-2349.25"/>
<text xml:space="preserve" text-anchor="start" x="749.38" y="-2336.7" font-family="Helvetica,sans-Serif" font-size="9.00" fill="orange">tabulator.js</text>
</a>
</g>
</g>
<!-- public/js/scripts/xlsx.js -->
<g id="node31" class="node">
<title>public/js/scripts/xlsx.js</title>
<g id="a_node31"><a xlink:href="public/js/scripts/xlsx.js" xlink:title="no&#45;orphans">
<path fill="#ccffcc" stroke="orange" d="M792.33,-2440.25C792.33,-2440.25 750.67,-2440.25 750.67,-2440.25 747.58,-2440.25 744.5,-2437.17 744.5,-2434.08 744.5,-2434.08 744.5,-2427.92 744.5,-2427.92 744.5,-2424.83 747.58,-2421.75 750.67,-2421.75 750.67,-2421.75 792.33,-2421.75 792.33,-2421.75 795.42,-2421.75 798.5,-2424.83 798.5,-2427.92 798.5,-2427.92 798.5,-2434.08 798.5,-2434.08 798.5,-2437.17 795.42,-2440.25 792.33,-2440.25"/>
<text xml:space="preserve" text-anchor="start" x="759.12" y="-2427.7" font-family="Helvetica,sans-Serif" font-size="9.00" fill="orange">xlsx.js</text>
</a>
</g>
</g>
<!-- public/js/usuarios/tableroUsuariosActivados.js -->
<g id="node32" class="node">
<title>public/js/usuarios/tableroUsuariosActivados.js</title>
<g id="a_node32"><a xlink:href="public/js/usuarios/tableroUsuariosActivados.js" xlink:title="no&#45;orphans">
<path fill="#ccffcc" stroke="orange" d="M830.33,-2531.25C830.33,-2531.25 712.67,-2531.25 712.67,-2531.25 709.58,-2531.25 706.5,-2528.17 706.5,-2525.08 706.5,-2525.08 706.5,-2518.92 706.5,-2518.92 706.5,-2515.83 709.58,-2512.75 712.67,-2512.75 712.67,-2512.75 830.33,-2512.75 830.33,-2512.75 833.42,-2512.75 836.5,-2515.83 836.5,-2518.92 836.5,-2518.92 836.5,-2525.08 836.5,-2525.08 836.5,-2528.17 833.42,-2531.25 830.33,-2531.25"/>
<text xml:space="preserve" text-anchor="start" x="714.5" y="-2518.7" font-family="Helvetica,sans-Serif" font-size="9.00" fill="orange">tableroUsuariosActivados.js</text>
</a>
</g>
</g>
<!-- routes/global.routes.js -->
<g id="node33" class="node">
<title>routes/global.routes.js</title>
<g id="a_node33"><a xlink:href="routes/global.routes.js" xlink:title="global.routes.js">
<path fill="#ffffcc" stroke="black" d="M324.33,-955.25C324.33,-955.25 258.42,-955.25 258.42,-955.25 255.33,-955.25 252.25,-952.17 252.25,-949.08 252.25,-949.08 252.25,-942.92 252.25,-942.92 252.25,-939.83 255.33,-936.75 258.42,-936.75 258.42,-936.75 324.33,-936.75 324.33,-936.75 327.42,-936.75 330.5,-939.83 330.5,-942.92 330.5,-942.92 330.5,-949.08 330.5,-949.08 330.5,-952.17 327.42,-955.25 324.33,-955.25"/>
<text xml:space="preserve" text-anchor="start" x="260.25" y="-942.7" font-family="Helvetica,sans-Serif" font-size="9.00">global.routes.js</text>
</a>
</g>
</g>
<!-- routes/global.routes.js&#45;&gt;controllers/login.controller.js -->
<g id="edge16" class="edge">
<title>routes/global.routes.js&#45;&gt;controllers/login.controller.js</title>
<path fill="none" stroke="#000000" stroke-width="2" stroke-opacity="0.200000" d="M330.75,-936.51C367.6,-927.4 424.86,-913.25 474.5,-901 561.99,-879.4 664.03,-854.24 722.57,-839.81"/>
<polygon fill="#000000" fill-opacity="0.200000" stroke="#000000" stroke-width="2" stroke-opacity="0.200000" points="722.97,-841.88 728.3,-838.4 721.97,-837.8 722.97,-841.88"/>
</g>
<!-- routes/global.routes.js&#45;&gt;node_modules/express -->
<g id="edge18" class="edge">
<title>routes/global.routes.js&#45;&gt;node_modules/express</title>
<path fill="none" stroke="#000000" stroke-opacity="0.200000" d="M313.22,-955.7C395.07,-993.25 703.14,-1129.83 972.5,-1186 1061.24,-1204.5 1168.34,-1209.84 1221.9,-1211.38"/>
<polygon fill="#000000" fill-opacity="0.200000" stroke="#000000" stroke-opacity="0.200000" points="1221.84,-1213.48 1227.89,-1211.54 1221.95,-1209.28 1221.84,-1213.48"/>
</g>
<!-- routes/usuarios.routes.js -->
<g id="node34" class="node">
<title>routes/usuarios.routes.js</title>
<g id="a_node34"><a xlink:href="routes/usuarios.routes.js" xlink:title="usuarios.routes.js">
<path fill="#ffffcc" stroke="black" d="M556.33,-955.25C556.33,-955.25 480.67,-955.25 480.67,-955.25 477.58,-955.25 474.5,-952.17 474.5,-949.08 474.5,-949.08 474.5,-942.92 474.5,-942.92 474.5,-939.83 477.58,-936.75 480.67,-936.75 480.67,-936.75 556.33,-936.75 556.33,-936.75 559.42,-936.75 562.5,-939.83 562.5,-942.92 562.5,-942.92 562.5,-949.08 562.5,-949.08 562.5,-952.17 559.42,-955.25 556.33,-955.25"/>
<text xml:space="preserve" text-anchor="start" x="482.5" y="-942.7" font-family="Helvetica,sans-Serif" font-size="9.00">usuarios.routes.js</text>
</a>
</g>
</g>
<!-- routes/global.routes.js&#45;&gt;routes/usuarios.routes.js -->
<g id="edge17" class="edge">
<title>routes/global.routes.js&#45;&gt;routes/usuarios.routes.js</title>
<path fill="none" stroke="#000000" stroke-width="2" stroke-opacity="0.200000" d="M330.82,-946C367.91,-946 424.32,-946 465.43,-946"/>
<polygon fill="#000000" fill-opacity="0.200000" stroke="#000000" stroke-width="2" stroke-opacity="0.200000" points="465.19,-948.1 471.19,-946 465.19,-943.9 465.19,-948.1"/>
</g>
<!-- routes/usuarios.routes.js&#45;&gt;controllers/usuarios.controller.js -->
<g id="edge19" class="edge">
<title>routes/usuarios.routes.js&#45;&gt;controllers/usuarios.controller.js</title>
<path fill="none" stroke="#000000" stroke-width="2" stroke-opacity="0.200000" d="M527.15,-936.54C549.1,-909.82 615.09,-832.52 682.5,-783 700.33,-769.9 722.4,-758.38 739.98,-750.14"/>
<polygon fill="#000000" fill-opacity="0.200000" stroke="#000000" stroke-width="2" stroke-opacity="0.200000" points="740.38,-752.26 744.96,-747.85 738.63,-748.45 740.38,-752.26"/>
</g>
<!-- routes/usuarios.routes.js&#45;&gt;node_modules/express -->
<g id="edge20" class="edge">
<title>routes/usuarios.routes.js&#45;&gt;node_modules/express</title>
<path fill="none" stroke="#000000" stroke-opacity="0.200000" d="M546.14,-955.62C659.13,-996.44 1098.62,-1155.2 1222.94,-1200.1"/>
<polygon fill="#000000" fill-opacity="0.200000" stroke="#000000" stroke-opacity="0.200000" points="1221.87,-1201.95 1228.23,-1202.01 1223.3,-1198 1221.87,-1201.95"/>
</g>
<!-- server.js -->
<g id="node35" class="node">
<title>server.js</title>
<g id="a_node35"><a xlink:href="server.js" xlink:title="server.js">
<path fill="#ffffcc" stroke="black" d="M74.96,-628.25C74.96,-628.25 33.29,-628.25 33.29,-628.25 30.21,-628.25 27.12,-625.17 27.12,-622.08 27.12,-622.08 27.12,-615.92 27.12,-615.92 27.12,-612.83 30.21,-609.75 33.29,-609.75 33.29,-609.75 74.96,-609.75 74.96,-609.75 78.04,-609.75 81.12,-612.83 81.12,-615.92 81.12,-615.92 81.12,-622.08 81.12,-622.08 81.12,-625.17 78.04,-628.25 74.96,-628.25"/>
<text xml:space="preserve" text-anchor="start" x="37.25" y="-615.7" font-family="Helvetica,sans-Serif" font-size="9.00">server.js</text>
</a>
</g>
</g>
<!-- server.js&#45;&gt;node_modules/cookie&#45;parser -->
<g id="edge24" class="edge">
<title>server.js&#45;&gt;node_modules/cookie&#45;parser</title>
<path fill="none" stroke="#000000" stroke-opacity="0.200000" d="M81.45,-619C152.06,-619 351.53,-619 517.5,-619 517.5,-619 517.5,-619 772.5,-619 916.86,-619 978.48,-599.13 1089,-692 1196.86,-782.64 1135.33,-866.05 1212.38,-984 1219.94,-995.58 1230.58,-1006.9 1239.45,-1015.41"/>
<polygon fill="#000000" fill-opacity="0.200000" stroke="#000000" stroke-opacity="0.200000" points="1237.77,-1016.72 1243.59,-1019.28 1240.65,-1013.65 1237.77,-1016.72"/>
</g>
<!-- server.js&#45;&gt;node_modules/dotenv -->
<g id="edge25" class="edge">
<title>server.js&#45;&gt;node_modules/dotenv</title>
<path fill="none" stroke="#000000" stroke-opacity="0.200000" d="M71.11,-628.68C83.19,-636.86 99.2,-649.66 108.25,-665 256.26,-915.82 106.67,-1049.32 244.25,-1306 326.24,-1458.98 343.94,-1585 517.5,-1585 517.5,-1585 517.5,-1585 772.5,-1585 879.99,-1585 1162.81,-1374.31 1237.54,-1317.15"/>
<polygon fill="#000000" fill-opacity="0.200000" stroke="#000000" stroke-opacity="0.200000" points="1238.66,-1318.95 1242.14,-1313.63 1236.1,-1315.61 1238.66,-1318.95"/>
</g>
<!-- server.js&#45;&gt;node_modules/express -->
<g id="edge26" class="edge">
<title>server.js&#45;&gt;node_modules/express</title>
<path fill="none" stroke="#000000" stroke-opacity="0.200000" d="M69.43,-628.48C81.19,-636.89 97.6,-650.12 108.25,-665 334.79,-981.39 128.37,-1439 517.5,-1439 517.5,-1439 517.5,-1439 772.5,-1439 973.73,-1439 1181.2,-1275.83 1239.68,-1226.17"/>
<polygon fill="#000000" fill-opacity="0.200000" stroke="#000000" stroke-opacity="0.200000" points="1240.83,-1227.95 1244.02,-1222.45 1238.1,-1224.76 1240.83,-1227.95"/>
</g>
<!-- server.js&#45;&gt;path -->
<g id="edge27" class="edge">
<title>server.js&#45;&gt;path</title>
<path fill="none" stroke="#000000" stroke-dasharray="5,2" stroke-opacity="0.200000" d="M67.68,-609.53C78.94,-600.72 95.6,-586.89 108.25,-573 318.96,-341.62 204.55,0 517.5,0 517.5,0 517.5,0 772.5,0 943.9,0 1144.16,-53.64 1222.28,-76.68"/>
<polygon fill="#000000" fill-opacity="0.200000" stroke="#000000" stroke-opacity="0.200000" points="1221.65,-78.69 1228,-78.38 1222.85,-74.66 1221.65,-78.69"/>
</g>
<!-- server.js&#45;&gt;routes/global.routes.js -->
<g id="edge21" class="edge">
<title>server.js&#45;&gt;routes/global.routes.js</title>
<path fill="none" stroke="#000000" stroke-width="2" stroke-opacity="0.200000" d="M68.28,-628.68C79.63,-637.42 96.08,-651.01 108.25,-665 186.95,-755.43 257.03,-882.5 281.32,-928.51"/>
<polygon fill="#000000" fill-opacity="0.200000" stroke="#000000" stroke-width="2" stroke-opacity="0.200000" points="279.38,-929.34 284.03,-933.68 283.1,-927.39 279.38,-929.34"/>
</g>
<!-- utils/middlewares/sessionManager.js -->
<g id="node36" class="node">
<title>utils/middlewares/sessionManager.js</title>
<g id="a_node36"><a xlink:href="utils/middlewares/sessionManager.js" xlink:title="sessionManager.js">
<path fill="#ffffcc" stroke="black" d="M811.58,-364.25C811.58,-364.25 731.42,-364.25 731.42,-364.25 728.33,-364.25 725.25,-361.17 725.25,-358.08 725.25,-358.08 725.25,-351.92 725.25,-351.92 725.25,-348.83 728.33,-345.75 731.42,-345.75 731.42,-345.75 811.58,-345.75 811.58,-345.75 814.67,-345.75 817.75,-348.83 817.75,-351.92 817.75,-351.92 817.75,-358.08 817.75,-358.08 817.75,-361.17 814.67,-364.25 811.58,-364.25"/>
<text xml:space="preserve" text-anchor="start" x="733.25" y="-351.7" font-family="Helvetica,sans-Serif" font-size="9.00">sessionManager.js</text>
</a>
</g>
</g>
<!-- server.js&#45;&gt;utils/middlewares/sessionManager.js -->
<g id="edge22" class="edge">
<title>server.js&#45;&gt;utils/middlewares/sessionManager.js</title>
<path fill="none" stroke="#000000" stroke-width="2" stroke-opacity="0.200000" d="M81.43,-609.29C191.1,-568.82 611.92,-413.52 735.92,-367.76"/>
<polygon fill="#000000" fill-opacity="0.200000" stroke="#000000" stroke-width="2" stroke-opacity="0.200000" points="736.59,-369.75 741.49,-365.71 735.13,-365.81 736.59,-369.75"/>
</g>
<!-- utils/scripts/postgrestRunner.js -->
<g id="node37" class="node">
<title>utils/scripts/postgrestRunner.js</title>
<g id="a_node37"><a xlink:href="utils/scripts/postgrestRunner.js" xlink:title="postgrestRunner.js">
<path fill="#ffffcc" stroke="black" d="M1066.83,-273.25C1066.83,-273.25 986.67,-273.25 986.67,-273.25 983.58,-273.25 980.5,-270.17 980.5,-267.08 980.5,-267.08 980.5,-260.92 980.5,-260.92 980.5,-257.83 983.58,-254.75 986.67,-254.75 986.67,-254.75 1066.83,-254.75 1066.83,-254.75 1069.92,-254.75 1073,-257.83 1073,-260.92 1073,-260.92 1073,-267.08 1073,-267.08 1073,-270.17 1069.92,-273.25 1066.83,-273.25"/>
<text xml:space="preserve" text-anchor="start" x="988.5" y="-260.7" font-family="Helvetica,sans-Serif" font-size="9.00">postgrestRunner.js</text>
</a>
</g>
</g>
<!-- server.js&#45;&gt;utils/scripts/postgrestRunner.js -->
<g id="edge23" class="edge">
<title>server.js&#45;&gt;utils/scripts/postgrestRunner.js</title>
<path fill="none" stroke="#000000" stroke-width="2" stroke-opacity="0.200000" d="M67.81,-609.54C143.73,-553.18 539.43,-262.55 682.5,-221 793.49,-188.76 931.59,-229.3 993.31,-251.41"/>
<polygon fill="#000000" fill-opacity="0.200000" stroke="#000000" stroke-width="2" stroke-opacity="0.200000" points="992.3,-253.27 998.66,-253.36 993.74,-249.33 992.3,-253.27"/>
</g>
<!-- utils/middlewares/sessionManager.js&#45;&gt;controllers/login.controller.js -->
<g id="edge28" class="edge">
<title>utils/middlewares/sessionManager.js&#45;&gt;controllers/login.controller.js</title>
<path fill="none" stroke="#000000" stroke-width="2" stroke-opacity="0.200000" d="M766.32,-364.68C743.88,-407.17 655.03,-582.04 626.5,-738 618.08,-784 675.16,-807.49 720.17,-818.74"/>
<polygon fill="#000000" fill-opacity="0.200000" stroke="#000000" stroke-width="2" stroke-opacity="0.200000" points="719.43,-820.72 725.76,-820.06 720.4,-816.64 719.43,-820.72"/>
</g>
<!-- utils/middlewares/sessionManager.js&#45;&gt;utils/scripts/postgrestHelper.js -->
<g id="edge29" class="edge">
<title>utils/middlewares/sessionManager.js&#45;&gt;utils/scripts/postgrestHelper.js</title>
<path fill="none" stroke="#000000" stroke-width="2" stroke-opacity="0.200000" d="M818.07,-355C861.59,-355 927.16,-355 972.94,-355"/>
<polygon fill="#000000" fill-opacity="0.200000" stroke="#000000" stroke-width="2" stroke-opacity="0.200000" points="972.79,-357.1 978.79,-355 972.79,-352.9 972.79,-357.1"/>
</g>
<!-- utils/middlewares/sessionManager.js&#45;&gt;node_modules/jsonwebtoken -->
<g id="edge30" class="edge">
<title>utils/middlewares/sessionManager.js&#45;&gt;node_modules/jsonwebtoken</title>
<path fill="none" stroke="#000000" stroke-opacity="0.200000" d="M795.62,-364.68C852.74,-389.65 1002.16,-461.51 1089,-564 1188.21,-681.09 1238.6,-866.58 1252.1,-922.51"/>
<polygon fill="#000000" fill-opacity="0.200000" stroke="#000000" stroke-opacity="0.200000" points="1249.98,-922.69 1253.41,-928.05 1254.07,-921.72 1249.98,-922.69"/>
</g>
<!-- utils/scripts/postgrestRunner.js&#45;&gt;child_process -->
<g id="edge32" class="edge">
<title>utils/scripts/postgrestRunner.js&#45;&gt;child_process</title>
<path fill="none" stroke="#000000" stroke-dasharray="5,2" stroke-opacity="0.200000" d="M1073.37,-264C1114.01,-264 1173.04,-264 1212.87,-264"/>
<polygon fill="#000000" fill-opacity="0.200000" stroke="#000000" stroke-opacity="0.200000" points="1212.56,-266.1 1218.56,-264 1212.56,-261.9 1212.56,-266.1"/>
</g>
<!-- utils/scripts/postgrestRunner.js&#45;&gt;path -->
<g id="edge33" class="edge">
<title>utils/scripts/postgrestRunner.js&#45;&gt;path</title>
<path fill="none" stroke="#000000" stroke-dasharray="5,2" stroke-opacity="0.200000" d="M1040.01,-254.48C1077.85,-225.13 1192.86,-135.89 1237.7,-101.1"/>
<polygon fill="#000000" fill-opacity="0.200000" stroke="#000000" stroke-opacity="0.200000" points="1238.9,-102.83 1242.35,-97.49 1236.33,-99.51 1238.9,-102.83"/>
</g>
<!-- tailwind.config.js -->
<g id="node38" class="node">
<title>tailwind.config.js</title>
<g id="a_node38"><a xlink:href="tailwind.config.js" xlink:title="no&#45;orphans">
<path fill="#ccffcc" stroke="orange" d="M89.71,-719.25C89.71,-719.25 18.54,-719.25 18.54,-719.25 15.46,-719.25 12.38,-716.17 12.38,-713.08 12.38,-713.08 12.38,-706.92 12.38,-706.92 12.38,-703.83 15.46,-700.75 18.54,-700.75 18.54,-700.75 89.71,-700.75 89.71,-700.75 92.79,-700.75 95.88,-703.83 95.88,-706.92 95.88,-706.92 95.88,-713.08 95.88,-713.08 95.88,-716.17 92.79,-719.25 89.71,-719.25"/>
<text xml:space="preserve" text-anchor="start" x="20.38" y="-706.7" font-family="Helvetica,sans-Serif" font-size="9.00" fill="orange">tailwind.config.js</text>
</a>
</g>
</g>
</g>
</svg>
